%TF.GenerationSoftware,KiCad,Pcbnew,9.0.0*%
%TF.CreationDate,2025-05-28T10:08:54+06:00*%
%TF.ProjectId,button-pcb,62757474-6f6e-42d7-9063-622e6b696361,rev?*%
%TF.SameCoordinates,Original*%
%TF.FileFunction,Copper,L1,Top*%
%TF.FilePolarity,Positive*%
%FSLAX46Y46*%
G04 Gerber Fmt 4.6, Leading zero omitted, Abs format (unit mm)*
G04 Created by KiCad (PCBNEW 9.0.0) date 2025-05-28 10:08:54*
%MOMM*%
%LPD*%
G01*
G04 APERTURE LIST*
%TA.AperFunction,ComponentPad*%
%ADD10R,1.800000X1.800000*%
%TD*%
%TA.AperFunction,ComponentPad*%
%ADD11C,1.800000*%
%TD*%
%TA.AperFunction,ComponentPad*%
%ADD12C,1.600000*%
%TD*%
%TA.AperFunction,ComponentPad*%
%ADD13O,1.600000X1.600000*%
%TD*%
%TA.AperFunction,ComponentPad*%
%ADD14R,1.200000X1.200000*%
%TD*%
%TA.AperFunction,ComponentPad*%
%ADD15C,1.200000*%
%TD*%
%TA.AperFunction,Conductor*%
%ADD16C,0.250000*%
%TD*%
G04 APERTURE END LIST*
D10*
%TO.P,D1,1,K*%
%TO.N,Net-(D1-K)*%
X151275000Y-94920000D03*
D11*
%TO.P,D1,2,A*%
%TO.N,Net-(D1-A)*%
X148735000Y-94920000D03*
%TD*%
D12*
%TO.P,R2,1*%
%TO.N,GND*%
X154200000Y-98755000D03*
D13*
%TO.P,R2,2*%
%TO.N,Net-(D2-K)*%
X154200000Y-101295000D03*
%TD*%
D12*
%TO.P,R1,1*%
%TO.N,GND*%
X145700000Y-101345000D03*
D13*
%TO.P,R1,2*%
%TO.N,Net-(D1-K)*%
X145700000Y-98805000D03*
%TD*%
D14*
%TO.P,J1,1,Pin_1*%
%TO.N,GND*%
X143200000Y-97750000D03*
D15*
%TO.P,J1,2,Pin_2*%
%TO.N,Net-(J1-Pin_2)*%
X143200000Y-99250000D03*
%TO.P,J1,3,Pin_3*%
%TO.N,Net-(D1-A)*%
X143200000Y-100750000D03*
%TO.P,J1,4,Pin_4*%
%TO.N,Net-(D2-A)*%
X143200000Y-102250000D03*
%TD*%
D10*
%TO.P,D2,1,K*%
%TO.N,Net-(D2-K)*%
X151275000Y-105080000D03*
D11*
%TO.P,D2,2,A*%
%TO.N,Net-(D2-A)*%
X148735000Y-105080000D03*
%TD*%
%TO.P,SW1,1*%
%TO.N,GND*%
X150000000Y-102500000D03*
%TO.P,SW1,2*%
%TO.N,Net-(J1-Pin_2)*%
X150000000Y-97500000D03*
%TD*%
D16*
%TO.N,GND*%
X154270000Y-98730000D02*
X154445000Y-98730000D01*
%TO.N,Net-(D1-A)*%
X148735000Y-94920000D02*
X148730000Y-94920000D01*
%TO.N,GND*%
X150000000Y-102500000D02*
X150500000Y-102500000D01*
%TO.N,Net-(D2-K)*%
X151275000Y-105080000D02*
X151275000Y-104220000D01*
%TD*%
%TA.AperFunction,Conductor*%
%TO.N,GND*%
G36*
X144453935Y-99324458D02*
G01*
X144512168Y-99363067D01*
X144527790Y-99386628D01*
X144580871Y-99490804D01*
X144701926Y-99657423D01*
X144701930Y-99657428D01*
X144847571Y-99803069D01*
X144847576Y-99803073D01*
X144935374Y-99866861D01*
X145014197Y-99924129D01*
X145102819Y-99969284D01*
X145153615Y-100017259D01*
X145170410Y-100085080D01*
X145147873Y-100151214D01*
X145102820Y-100190253D01*
X145018648Y-100233141D01*
X145018645Y-100233143D01*
X144974077Y-100265523D01*
X144974077Y-100265524D01*
X145653554Y-100945000D01*
X145647339Y-100945000D01*
X145545606Y-100972259D01*
X145454394Y-101024920D01*
X145379920Y-101099394D01*
X145327259Y-101190606D01*
X145300000Y-101292339D01*
X145300000Y-101298553D01*
X144620524Y-100619077D01*
X144620523Y-100619077D01*
X144588143Y-100663644D01*
X144542985Y-100752273D01*
X144495010Y-100803069D01*
X144427189Y-100819864D01*
X144361054Y-100797326D01*
X144317603Y-100742611D01*
X144308500Y-100695978D01*
X144308500Y-100662759D01*
X144301581Y-100619076D01*
X144281205Y-100490426D01*
X144227288Y-100324484D01*
X144227288Y-100324483D01*
X144148073Y-100169018D01*
X144128646Y-100142279D01*
X144078228Y-100072884D01*
X144054749Y-100007079D01*
X144070574Y-99939025D01*
X144078225Y-99927119D01*
X144148074Y-99830981D01*
X144227288Y-99675516D01*
X144281205Y-99509574D01*
X144294834Y-99423522D01*
X144324761Y-99360392D01*
X144384073Y-99323460D01*
X144453935Y-99324458D01*
G37*
%TD.AperFunction*%
%TA.AperFunction,Conductor*%
G36*
X158006061Y-91301097D02*
G01*
X158117401Y-91312063D01*
X158132827Y-91314572D01*
X158151707Y-91318881D01*
X158160079Y-91321104D01*
X158254784Y-91349832D01*
X158272576Y-91356766D01*
X158277944Y-91359352D01*
X158282544Y-91361687D01*
X158377853Y-91412631D01*
X158398062Y-91426135D01*
X158485180Y-91497631D01*
X158502368Y-91514819D01*
X158573865Y-91601938D01*
X158587369Y-91622148D01*
X158587370Y-91622150D01*
X158638292Y-91717418D01*
X158640655Y-91722070D01*
X158643228Y-91727413D01*
X158650168Y-91745219D01*
X158678892Y-91839911D01*
X158681123Y-91848316D01*
X158685424Y-91867162D01*
X158687935Y-91882596D01*
X158698903Y-91993938D01*
X158699500Y-92006094D01*
X158699500Y-107993905D01*
X158698903Y-108006061D01*
X158687935Y-108117402D01*
X158685424Y-108132836D01*
X158681123Y-108151682D01*
X158678892Y-108160087D01*
X158650168Y-108254779D01*
X158643228Y-108272585D01*
X158640655Y-108277928D01*
X158638292Y-108282580D01*
X158587370Y-108377849D01*
X158573865Y-108398061D01*
X158502368Y-108485180D01*
X158485180Y-108502368D01*
X158398061Y-108573865D01*
X158377849Y-108587370D01*
X158282580Y-108638292D01*
X158277928Y-108640655D01*
X158272585Y-108643228D01*
X158254779Y-108650168D01*
X158160087Y-108678892D01*
X158151682Y-108681123D01*
X158132836Y-108685424D01*
X158117402Y-108687935D01*
X158010335Y-108698482D01*
X158006060Y-108698903D01*
X157993906Y-108699500D01*
X142006094Y-108699500D01*
X141993939Y-108698903D01*
X141989121Y-108698428D01*
X141882596Y-108687935D01*
X141867162Y-108685424D01*
X141848316Y-108681123D01*
X141839911Y-108678892D01*
X141745219Y-108650168D01*
X141727413Y-108643228D01*
X141722070Y-108640655D01*
X141717418Y-108638292D01*
X141622150Y-108587370D01*
X141601938Y-108573865D01*
X141514819Y-108502368D01*
X141497631Y-108485180D01*
X141426135Y-108398062D01*
X141412630Y-108377851D01*
X141388021Y-108331811D01*
X141361687Y-108282544D01*
X141359344Y-108277928D01*
X141356766Y-108272576D01*
X141349830Y-108254779D01*
X141321106Y-108160087D01*
X141318881Y-108151707D01*
X141314572Y-108132827D01*
X141312063Y-108117400D01*
X141301097Y-108006061D01*
X141300500Y-107993907D01*
X141300500Y-105921158D01*
X143199500Y-105921158D01*
X143199500Y-105921635D01*
X143199500Y-105928676D01*
X143199500Y-106078846D01*
X143230261Y-106233494D01*
X143230263Y-106233497D01*
X143237482Y-106250927D01*
X143241483Y-106260586D01*
X143242504Y-106265059D01*
X143248450Y-106277406D01*
X143249781Y-106280619D01*
X143290604Y-106379176D01*
X143310316Y-106408678D01*
X143315156Y-106415922D01*
X143320478Y-106426972D01*
X143333199Y-106442924D01*
X143336096Y-106447259D01*
X143336096Y-106447261D01*
X143336097Y-106447262D01*
X143378207Y-106510284D01*
X143378213Y-106510292D01*
X143416289Y-106548367D01*
X143421216Y-106553294D01*
X143432525Y-106567475D01*
X143446705Y-106578783D01*
X143489706Y-106621784D01*
X143489706Y-106621785D01*
X143489709Y-106621787D01*
X143489711Y-106621789D01*
X143557073Y-106666799D01*
X143573028Y-106679522D01*
X143584080Y-106684844D01*
X143620821Y-106709394D01*
X143620824Y-106709395D01*
X143620827Y-106709397D01*
X143672607Y-106730844D01*
X143722596Y-106751550D01*
X143734941Y-106757496D01*
X143739414Y-106758517D01*
X143749078Y-106762520D01*
X143749082Y-106762521D01*
X143766503Y-106769737D01*
X143896776Y-106795650D01*
X143921153Y-106800499D01*
X143921156Y-106800500D01*
X143921158Y-106800500D01*
X144078844Y-106800500D01*
X144078845Y-106800499D01*
X144233497Y-106769737D01*
X144260587Y-106758516D01*
X144265059Y-106757496D01*
X144277397Y-106751552D01*
X144379179Y-106709394D01*
X144415921Y-106684843D01*
X144426972Y-106679522D01*
X144442913Y-106666807D01*
X144510289Y-106621789D01*
X144553298Y-106578779D01*
X144567475Y-106567475D01*
X144578779Y-106553298D01*
X144621789Y-106510289D01*
X144666807Y-106442913D01*
X144679522Y-106426972D01*
X144684843Y-106415921D01*
X144709394Y-106379179D01*
X144751552Y-106277397D01*
X144757496Y-106265059D01*
X144758516Y-106260586D01*
X144769737Y-106233497D01*
X144800500Y-106078842D01*
X144800500Y-105921158D01*
X144800500Y-105921155D01*
X144800499Y-105921153D01*
X144769738Y-105766510D01*
X144769737Y-105766503D01*
X144758516Y-105739414D01*
X144757496Y-105734941D01*
X144751544Y-105722582D01*
X144750217Y-105719379D01*
X144730844Y-105672607D01*
X144709397Y-105620827D01*
X144709395Y-105620824D01*
X144709394Y-105620821D01*
X144684844Y-105584080D01*
X144679522Y-105573028D01*
X144666799Y-105557073D01*
X144621789Y-105489711D01*
X144621787Y-105489709D01*
X144621785Y-105489706D01*
X144583711Y-105451633D01*
X144578783Y-105446705D01*
X144567475Y-105432525D01*
X144553294Y-105421216D01*
X144548367Y-105416289D01*
X144510292Y-105378213D01*
X144510284Y-105378207D01*
X144447262Y-105336097D01*
X144447260Y-105336096D01*
X144442924Y-105333199D01*
X144426972Y-105320478D01*
X144415922Y-105315156D01*
X144408678Y-105310316D01*
X144379176Y-105290604D01*
X144280619Y-105249781D01*
X144277406Y-105248450D01*
X144265059Y-105242504D01*
X144260586Y-105241483D01*
X144250927Y-105237482D01*
X144233497Y-105230263D01*
X144233494Y-105230261D01*
X144078845Y-105199500D01*
X144078842Y-105199500D01*
X143921158Y-105199500D01*
X143921156Y-105199500D01*
X143766505Y-105230262D01*
X143766499Y-105230264D01*
X143749067Y-105237484D01*
X143749066Y-105237483D01*
X143739403Y-105241485D01*
X143734941Y-105242504D01*
X143722620Y-105248437D01*
X143719391Y-105249775D01*
X143719379Y-105249781D01*
X143620819Y-105290606D01*
X143591318Y-105310316D01*
X143591319Y-105310317D01*
X143584071Y-105315159D01*
X143573028Y-105320478D01*
X143557090Y-105333188D01*
X143552735Y-105336098D01*
X143489717Y-105378206D01*
X143489709Y-105378212D01*
X143446700Y-105421220D01*
X143432525Y-105432525D01*
X143421220Y-105446700D01*
X143378212Y-105489709D01*
X143378206Y-105489717D01*
X143336098Y-105552733D01*
X143336099Y-105552734D01*
X143333189Y-105557088D01*
X143320478Y-105573028D01*
X143315161Y-105584067D01*
X143310318Y-105591316D01*
X143310319Y-105591316D01*
X143290606Y-105620819D01*
X143249781Y-105719379D01*
X143246943Y-105725721D01*
X143242574Y-105734793D01*
X143242572Y-105734797D01*
X143242504Y-105734941D01*
X143241482Y-105739416D01*
X143230263Y-105766503D01*
X143199500Y-105921158D01*
X141300500Y-105921158D01*
X141300500Y-104969149D01*
X147326500Y-104969149D01*
X147326500Y-105190851D01*
X147345422Y-105310317D01*
X147361182Y-105409824D01*
X147429693Y-105620680D01*
X147503994Y-105766502D01*
X147530343Y-105818215D01*
X147660657Y-105997576D01*
X147817424Y-106154343D01*
X147996785Y-106284657D01*
X148090114Y-106332210D01*
X148194319Y-106385306D01*
X148194321Y-106385306D01*
X148194324Y-106385308D01*
X148405176Y-106453818D01*
X148624149Y-106488500D01*
X148624150Y-106488500D01*
X148845850Y-106488500D01*
X148845851Y-106488500D01*
X149064824Y-106453818D01*
X149275676Y-106385308D01*
X149473215Y-106284657D01*
X149652576Y-106154343D01*
X149694391Y-106112527D01*
X149755712Y-106079043D01*
X149825403Y-106084027D01*
X149881337Y-106125897D01*
X149898250Y-106156871D01*
X149924111Y-106226204D01*
X149924112Y-106226206D01*
X149959083Y-106272921D01*
X150011739Y-106343261D01*
X150128796Y-106430889D01*
X150265799Y-106481989D01*
X150293050Y-106484918D01*
X150326345Y-106488499D01*
X150326362Y-106488500D01*
X152223638Y-106488500D01*
X152223654Y-106488499D01*
X152250692Y-106485591D01*
X152284201Y-106481989D01*
X152421204Y-106430889D01*
X152538261Y-106343261D01*
X152625889Y-106226204D01*
X152676989Y-106089201D01*
X152680591Y-106055692D01*
X152683499Y-106028654D01*
X152683500Y-106028637D01*
X152683500Y-105921158D01*
X155199500Y-105921158D01*
X155199500Y-105921635D01*
X155199500Y-105928676D01*
X155199500Y-106078846D01*
X155230261Y-106233494D01*
X155230263Y-106233497D01*
X155237482Y-106250927D01*
X155241483Y-106260586D01*
X155242504Y-106265059D01*
X155248450Y-106277406D01*
X155249781Y-106280619D01*
X155290604Y-106379176D01*
X155310316Y-106408678D01*
X155315156Y-106415922D01*
X155320478Y-106426972D01*
X155333199Y-106442924D01*
X155336096Y-106447259D01*
X155336096Y-106447261D01*
X155336097Y-106447262D01*
X155378207Y-106510284D01*
X155378213Y-106510292D01*
X155416289Y-106548367D01*
X155421216Y-106553294D01*
X155432525Y-106567475D01*
X155446705Y-106578783D01*
X155489706Y-106621784D01*
X155489706Y-106621785D01*
X155489709Y-106621787D01*
X155489711Y-106621789D01*
X155557073Y-106666799D01*
X155573028Y-106679522D01*
X155584080Y-106684844D01*
X155620821Y-106709394D01*
X155620824Y-106709395D01*
X155620827Y-106709397D01*
X155672607Y-106730844D01*
X155722596Y-106751550D01*
X155734941Y-106757496D01*
X155739414Y-106758517D01*
X155749078Y-106762520D01*
X155749082Y-106762521D01*
X155766503Y-106769737D01*
X155896776Y-106795650D01*
X155921153Y-106800499D01*
X155921156Y-106800500D01*
X155921158Y-106800500D01*
X156078844Y-106800500D01*
X156078845Y-106800499D01*
X156233497Y-106769737D01*
X156260587Y-106758516D01*
X156265059Y-106757496D01*
X156277397Y-106751552D01*
X156379179Y-106709394D01*
X156415921Y-106684843D01*
X156426972Y-106679522D01*
X156442913Y-106666807D01*
X156510289Y-106621789D01*
X156553298Y-106578779D01*
X156567475Y-106567475D01*
X156578779Y-106553298D01*
X156621789Y-106510289D01*
X156666807Y-106442913D01*
X156679522Y-106426972D01*
X156684843Y-106415921D01*
X156709394Y-106379179D01*
X156751552Y-106277397D01*
X156757496Y-106265059D01*
X156758516Y-106260586D01*
X156769737Y-106233497D01*
X156800500Y-106078842D01*
X156800500Y-105921158D01*
X156800500Y-105921155D01*
X156800499Y-105921153D01*
X156769738Y-105766510D01*
X156769737Y-105766503D01*
X156758516Y-105739414D01*
X156757496Y-105734941D01*
X156751544Y-105722582D01*
X156750217Y-105719379D01*
X156730844Y-105672607D01*
X156709397Y-105620827D01*
X156709395Y-105620824D01*
X156709394Y-105620821D01*
X156684844Y-105584080D01*
X156679522Y-105573028D01*
X156666799Y-105557073D01*
X156621789Y-105489711D01*
X156621787Y-105489709D01*
X156621785Y-105489706D01*
X156583711Y-105451633D01*
X156578783Y-105446705D01*
X156567475Y-105432525D01*
X156553294Y-105421216D01*
X156548367Y-105416289D01*
X156510292Y-105378213D01*
X156510284Y-105378207D01*
X156447262Y-105336097D01*
X156447260Y-105336096D01*
X156442924Y-105333199D01*
X156426972Y-105320478D01*
X156415922Y-105315156D01*
X156408678Y-105310316D01*
X156379176Y-105290604D01*
X156280619Y-105249781D01*
X156277406Y-105248450D01*
X156265059Y-105242504D01*
X156260586Y-105241483D01*
X156250927Y-105237482D01*
X156233497Y-105230263D01*
X156233494Y-105230261D01*
X156078845Y-105199500D01*
X156078842Y-105199500D01*
X155921158Y-105199500D01*
X155921156Y-105199500D01*
X155766505Y-105230262D01*
X155766499Y-105230264D01*
X155749067Y-105237484D01*
X155749066Y-105237483D01*
X155739403Y-105241485D01*
X155734941Y-105242504D01*
X155722620Y-105248437D01*
X155719391Y-105249775D01*
X155719379Y-105249781D01*
X155620819Y-105290606D01*
X155591318Y-105310316D01*
X155591319Y-105310317D01*
X155584071Y-105315159D01*
X155573028Y-105320478D01*
X155557090Y-105333188D01*
X155552735Y-105336098D01*
X155489717Y-105378206D01*
X155489709Y-105378212D01*
X155446700Y-105421220D01*
X155432525Y-105432525D01*
X155421220Y-105446700D01*
X155378212Y-105489709D01*
X155378206Y-105489717D01*
X155336098Y-105552733D01*
X155336099Y-105552734D01*
X155333189Y-105557088D01*
X155320478Y-105573028D01*
X155315161Y-105584067D01*
X155310318Y-105591316D01*
X155310319Y-105591316D01*
X155290606Y-105620819D01*
X155249781Y-105719379D01*
X155246943Y-105725721D01*
X155242574Y-105734793D01*
X155242572Y-105734797D01*
X155242504Y-105734941D01*
X155241482Y-105739416D01*
X155230263Y-105766503D01*
X155199500Y-105921158D01*
X152683500Y-105921158D01*
X152683500Y-104131362D01*
X152683499Y-104131345D01*
X152680157Y-104100270D01*
X152676989Y-104070799D01*
X152625889Y-103933796D01*
X152538261Y-103816739D01*
X152421204Y-103729111D01*
X152361773Y-103706944D01*
X152284203Y-103678011D01*
X152223654Y-103671500D01*
X152223638Y-103671500D01*
X151630270Y-103671500D01*
X151581396Y-103659257D01*
X151580703Y-103660931D01*
X151459785Y-103610845D01*
X151459777Y-103610843D01*
X151337398Y-103586500D01*
X151337394Y-103586500D01*
X151212606Y-103586500D01*
X151205969Y-103587820D01*
X151136377Y-103581591D01*
X151081201Y-103538727D01*
X151057958Y-103472836D01*
X151074027Y-103404840D01*
X151081462Y-103393316D01*
X151197386Y-103233760D01*
X151297432Y-103037410D01*
X151365526Y-102827835D01*
X151400000Y-102610181D01*
X151400000Y-102389818D01*
X151365526Y-102172164D01*
X151297432Y-101962589D01*
X151197388Y-101766243D01*
X151151066Y-101702485D01*
X151151065Y-101702485D01*
X150482962Y-102370590D01*
X150465925Y-102307007D01*
X150400099Y-102192993D01*
X150307007Y-102099901D01*
X150192993Y-102034075D01*
X150129407Y-102017037D01*
X150797513Y-101348932D01*
X150733756Y-101302611D01*
X150723984Y-101297632D01*
X150537410Y-101202567D01*
X150504946Y-101192019D01*
X152891500Y-101192019D01*
X152891500Y-101397980D01*
X152923719Y-101601408D01*
X152987367Y-101797294D01*
X153051671Y-101923496D01*
X153071590Y-101962589D01*
X153080873Y-101980806D01*
X153201926Y-102147423D01*
X153201930Y-102147428D01*
X153347571Y-102293069D01*
X153347576Y-102293073D01*
X153480736Y-102389818D01*
X153514197Y-102414129D01*
X153598059Y-102456859D01*
X153697705Y-102507632D01*
X153697707Y-102507632D01*
X153697710Y-102507634D01*
X153802707Y-102541749D01*
X153893591Y-102571280D01*
X153995305Y-102587390D01*
X154097019Y-102603500D01*
X154097020Y-102603500D01*
X154302980Y-102603500D01*
X154302981Y-102603500D01*
X154506408Y-102571280D01*
X154702290Y-102507634D01*
X154885803Y-102414129D01*
X155052430Y-102293068D01*
X155198068Y-102147430D01*
X155319129Y-101980803D01*
X155412634Y-101797290D01*
X155476280Y-101601408D01*
X155508500Y-101397981D01*
X155508500Y-101192019D01*
X155499386Y-101134473D01*
X155476280Y-100988591D01*
X155446749Y-100897707D01*
X155412634Y-100792710D01*
X155412632Y-100792707D01*
X155412632Y-100792705D01*
X155346420Y-100662759D01*
X155319129Y-100609197D01*
X155303661Y-100587908D01*
X155198073Y-100442576D01*
X155198069Y-100442571D01*
X155052428Y-100296930D01*
X155052423Y-100296926D01*
X154885806Y-100175873D01*
X154885805Y-100175872D01*
X154885803Y-100175871D01*
X154797180Y-100130715D01*
X154746384Y-100082740D01*
X154729589Y-100014919D01*
X154752127Y-99948784D01*
X154797181Y-99909745D01*
X154881346Y-99866861D01*
X154881347Y-99866861D01*
X154925921Y-99834474D01*
X154246447Y-99155000D01*
X154252661Y-99155000D01*
X154354394Y-99127741D01*
X154445606Y-99075080D01*
X154520080Y-99000606D01*
X154572741Y-98909394D01*
X154600000Y-98807661D01*
X154600000Y-98801448D01*
X155279474Y-99480922D01*
X155279474Y-99480921D01*
X155311859Y-99436349D01*
X155404755Y-99254031D01*
X155467990Y-99059417D01*
X155500000Y-98857317D01*
X155500000Y-98652682D01*
X155467990Y-98450582D01*
X155404755Y-98255968D01*
X155311859Y-98073650D01*
X155279474Y-98029077D01*
X155279474Y-98029076D01*
X154600000Y-98708551D01*
X154600000Y-98702339D01*
X154572741Y-98600606D01*
X154520080Y-98509394D01*
X154445606Y-98434920D01*
X154354394Y-98382259D01*
X154252661Y-98355000D01*
X154246446Y-98355000D01*
X154925922Y-97675524D01*
X154925921Y-97675523D01*
X154881359Y-97643147D01*
X154881350Y-97643141D01*
X154699031Y-97550244D01*
X154504417Y-97487009D01*
X154302317Y-97455000D01*
X154097683Y-97455000D01*
X153895582Y-97487009D01*
X153700968Y-97550244D01*
X153518644Y-97643143D01*
X153474077Y-97675523D01*
X153474077Y-97675524D01*
X154153554Y-98355000D01*
X154147339Y-98355000D01*
X154045606Y-98382259D01*
X153954394Y-98434920D01*
X153879920Y-98509394D01*
X153827259Y-98600606D01*
X153800000Y-98702339D01*
X153800000Y-98708553D01*
X153120524Y-98029077D01*
X153120523Y-98029077D01*
X153088143Y-98073644D01*
X152995244Y-98255968D01*
X152932009Y-98450582D01*
X152900000Y-98652682D01*
X152900000Y-98857317D01*
X152932009Y-99059417D01*
X152995244Y-99254031D01*
X153088141Y-99436350D01*
X153088147Y-99436359D01*
X153120523Y-99480921D01*
X153120524Y-99480922D01*
X153800000Y-98801446D01*
X153800000Y-98807661D01*
X153827259Y-98909394D01*
X153879920Y-99000606D01*
X153954394Y-99075080D01*
X154045606Y-99127741D01*
X154147339Y-99155000D01*
X154153553Y-99155000D01*
X153474076Y-99834474D01*
X153518652Y-99866861D01*
X153602818Y-99909745D01*
X153653614Y-99957719D01*
X153670410Y-100025540D01*
X153647873Y-100091675D01*
X153602820Y-100130714D01*
X153514195Y-100175871D01*
X153347576Y-100296926D01*
X153347571Y-100296930D01*
X153201930Y-100442571D01*
X153201926Y-100442576D01*
X153080873Y-100609193D01*
X152987367Y-100792705D01*
X152923719Y-100988591D01*
X152891500Y-101192019D01*
X150504946Y-101192019D01*
X150327835Y-101134473D01*
X150110181Y-101100000D01*
X149889819Y-101100000D01*
X149672164Y-101134473D01*
X149462589Y-101202567D01*
X149266233Y-101302616D01*
X149202485Y-101348931D01*
X149202485Y-101348932D01*
X149870590Y-102017037D01*
X149807007Y-102034075D01*
X149692993Y-102099901D01*
X149599901Y-102192993D01*
X149534075Y-102307007D01*
X149517037Y-102370590D01*
X148848932Y-101702485D01*
X148848931Y-101702485D01*
X148802616Y-101766233D01*
X148702567Y-101962589D01*
X148634473Y-102172164D01*
X148600000Y-102389818D01*
X148600000Y-102610181D01*
X148634473Y-102827835D01*
X148702567Y-103037410D01*
X148802611Y-103233756D01*
X148848932Y-103297513D01*
X149517037Y-102629408D01*
X149534075Y-102692993D01*
X149599901Y-102807007D01*
X149692993Y-102900099D01*
X149807007Y-102965925D01*
X149870590Y-102982962D01*
X149180492Y-103673058D01*
X149119169Y-103706543D01*
X149069782Y-103706019D01*
X149069636Y-103706944D01*
X148961621Y-103689836D01*
X148845851Y-103671500D01*
X148624149Y-103671500D01*
X148514662Y-103688841D01*
X148405175Y-103706182D01*
X148194319Y-103774693D01*
X147996784Y-103875343D01*
X147916333Y-103933795D01*
X147817424Y-104005657D01*
X147817422Y-104005659D01*
X147817421Y-104005659D01*
X147660659Y-104162421D01*
X147660659Y-104162422D01*
X147660657Y-104162424D01*
X147604692Y-104239452D01*
X147530343Y-104341784D01*
X147429693Y-104539319D01*
X147361182Y-104750175D01*
X147361182Y-104750176D01*
X147326500Y-104969149D01*
X141300500Y-104969149D01*
X141300500Y-99162759D01*
X142091500Y-99162759D01*
X142091500Y-99337241D01*
X142099322Y-99386628D01*
X142118795Y-99509575D01*
X142172710Y-99675513D01*
X142172711Y-99675516D01*
X142251928Y-99830984D01*
X142321770Y-99927115D01*
X142345250Y-99992922D01*
X142329424Y-100060975D01*
X142321770Y-100072885D01*
X142251928Y-100169015D01*
X142172711Y-100324483D01*
X142172710Y-100324486D01*
X142118795Y-100490424D01*
X142091500Y-100662759D01*
X142091500Y-100837240D01*
X142118795Y-101009575D01*
X142172710Y-101175513D01*
X142172711Y-101175516D01*
X142226548Y-101281175D01*
X142246241Y-101319824D01*
X142251928Y-101330984D01*
X142321770Y-101427115D01*
X142345250Y-101492922D01*
X142329424Y-101560975D01*
X142321770Y-101572885D01*
X142251928Y-101669015D01*
X142172711Y-101824483D01*
X142172710Y-101824486D01*
X142118795Y-101990424D01*
X142091500Y-102162759D01*
X142091500Y-102337240D01*
X142118795Y-102509575D01*
X142172710Y-102675513D01*
X142172711Y-102675516D01*
X142251928Y-102830984D01*
X142354477Y-102972132D01*
X142354481Y-102972137D01*
X142477862Y-103095518D01*
X142477867Y-103095522D01*
X142600984Y-103184971D01*
X142619019Y-103198074D01*
X142720646Y-103249856D01*
X142774483Y-103277288D01*
X142774486Y-103277289D01*
X142836731Y-103297513D01*
X142940426Y-103331205D01*
X143112759Y-103358500D01*
X143112760Y-103358500D01*
X143287240Y-103358500D01*
X143287241Y-103358500D01*
X143459574Y-103331205D01*
X143625516Y-103277288D01*
X143780981Y-103198074D01*
X143922139Y-103095517D01*
X144045517Y-102972139D01*
X144148074Y-102830981D01*
X144227288Y-102675516D01*
X144281205Y-102509574D01*
X144308500Y-102337241D01*
X144308500Y-102162759D01*
X144281205Y-101990426D01*
X144227288Y-101824484D01*
X144227288Y-101824483D01*
X144148073Y-101669018D01*
X144133832Y-101649417D01*
X144078228Y-101572884D01*
X144070785Y-101552025D01*
X144059080Y-101533222D01*
X144059273Y-101519759D01*
X144054749Y-101507079D01*
X144059765Y-101485504D01*
X144060084Y-101463359D01*
X144069106Y-101445336D01*
X144070574Y-101439025D01*
X144075205Y-101431469D01*
X144076665Y-101429266D01*
X144148074Y-101330981D01*
X144168737Y-101290426D01*
X144172658Y-101284515D01*
X144194178Y-101266401D01*
X144213490Y-101245955D01*
X144220548Y-101244206D01*
X144226114Y-101239523D01*
X144254012Y-101235920D01*
X144281311Y-101229160D01*
X144288194Y-101231505D01*
X144295409Y-101230574D01*
X144320824Y-101242625D01*
X144347446Y-101251697D01*
X144351969Y-101257392D01*
X144358541Y-101260509D01*
X144373407Y-101284388D01*
X144390897Y-101306413D01*
X144392623Y-101315255D01*
X144395467Y-101319824D01*
X144395333Y-101329138D01*
X144400000Y-101353046D01*
X144400000Y-101447317D01*
X144432009Y-101649417D01*
X144495244Y-101844031D01*
X144588141Y-102026350D01*
X144588147Y-102026359D01*
X144620523Y-102070921D01*
X144620524Y-102070922D01*
X145300000Y-101391446D01*
X145300000Y-101397661D01*
X145327259Y-101499394D01*
X145379920Y-101590606D01*
X145454394Y-101665080D01*
X145545606Y-101717741D01*
X145647339Y-101745000D01*
X145653553Y-101745000D01*
X144974076Y-102424474D01*
X145018650Y-102456859D01*
X145200968Y-102549755D01*
X145395582Y-102612990D01*
X145597683Y-102645000D01*
X145802317Y-102645000D01*
X146004417Y-102612990D01*
X146199031Y-102549755D01*
X146381349Y-102456859D01*
X146425922Y-102424474D01*
X145746447Y-101745000D01*
X145752661Y-101745000D01*
X145854394Y-101717741D01*
X145945606Y-101665080D01*
X146020080Y-101590606D01*
X146072741Y-101499394D01*
X146100000Y-101397661D01*
X146100000Y-101391447D01*
X146779474Y-102070921D01*
X146811859Y-102026349D01*
X146904755Y-101844031D01*
X146967990Y-101649417D01*
X147000000Y-101447317D01*
X147000000Y-101242682D01*
X146967990Y-101040582D01*
X146904755Y-100845968D01*
X146811859Y-100663650D01*
X146779474Y-100619077D01*
X146779474Y-100619076D01*
X146100000Y-101298551D01*
X146100000Y-101292339D01*
X146072741Y-101190606D01*
X146020080Y-101099394D01*
X145945606Y-101024920D01*
X145854394Y-100972259D01*
X145752661Y-100945000D01*
X145746446Y-100945000D01*
X146425922Y-100265524D01*
X146425921Y-100265523D01*
X146381359Y-100233147D01*
X146381350Y-100233141D01*
X146297180Y-100190254D01*
X146246384Y-100142279D01*
X146229589Y-100074458D01*
X146252127Y-100008323D01*
X146297179Y-99969284D01*
X146385803Y-99924129D01*
X146552430Y-99803068D01*
X146698068Y-99657430D01*
X146819129Y-99490803D01*
X146912634Y-99307290D01*
X146976280Y-99111408D01*
X147008500Y-98907981D01*
X147008500Y-98702019D01*
X146988278Y-98574343D01*
X146976280Y-98498591D01*
X146912632Y-98302705D01*
X146860592Y-98200572D01*
X146819129Y-98119197D01*
X146768855Y-98050000D01*
X146698073Y-97952576D01*
X146698069Y-97952571D01*
X146552428Y-97806930D01*
X146552423Y-97806926D01*
X146385806Y-97685873D01*
X146385805Y-97685872D01*
X146385803Y-97685871D01*
X146301941Y-97643141D01*
X146202294Y-97592367D01*
X146006408Y-97528719D01*
X145825079Y-97500000D01*
X145802981Y-97496500D01*
X145597019Y-97496500D01*
X145574921Y-97500000D01*
X145393591Y-97528719D01*
X145197705Y-97592367D01*
X145014193Y-97685873D01*
X144847576Y-97806926D01*
X144847571Y-97806930D01*
X144701930Y-97952571D01*
X144701926Y-97952576D01*
X144580873Y-98119193D01*
X144534485Y-98210234D01*
X144486510Y-98261030D01*
X144418689Y-98277825D01*
X144352554Y-98255287D01*
X144309103Y-98200572D01*
X144300000Y-98153939D01*
X144300000Y-98000000D01*
X143366988Y-98000000D01*
X143384205Y-97990060D01*
X143440060Y-97934205D01*
X143479556Y-97865796D01*
X143500000Y-97789496D01*
X143500000Y-97710504D01*
X143479556Y-97634204D01*
X143440060Y-97565795D01*
X143384205Y-97509940D01*
X143366988Y-97500000D01*
X143450000Y-97500000D01*
X144300000Y-97500000D01*
X144300000Y-97102172D01*
X144299999Y-97102155D01*
X144293598Y-97042627D01*
X144293596Y-97042620D01*
X144243354Y-96907913D01*
X144243350Y-96907906D01*
X144157190Y-96792812D01*
X144157187Y-96792809D01*
X144042093Y-96706649D01*
X144042086Y-96706645D01*
X143907379Y-96656403D01*
X143907372Y-96656401D01*
X143847844Y-96650000D01*
X143450000Y-96650000D01*
X143450000Y-97500000D01*
X143366988Y-97500000D01*
X143315796Y-97470444D01*
X143239496Y-97450000D01*
X143160504Y-97450000D01*
X143084204Y-97470444D01*
X143015795Y-97509940D01*
X142959940Y-97565795D01*
X142920444Y-97634204D01*
X142900000Y-97710504D01*
X142900000Y-97789496D01*
X142920444Y-97865796D01*
X142959940Y-97934205D01*
X143015795Y-97990060D01*
X143033012Y-98000000D01*
X142100000Y-98000000D01*
X142100000Y-98397844D01*
X142106401Y-98457372D01*
X142106403Y-98457379D01*
X142156645Y-98592086D01*
X142156647Y-98592089D01*
X142190390Y-98637164D01*
X142214807Y-98702629D01*
X142201609Y-98767768D01*
X142172712Y-98824482D01*
X142172710Y-98824486D01*
X142118795Y-98990424D01*
X142107868Y-99059417D01*
X142091500Y-99162759D01*
X141300500Y-99162759D01*
X141300500Y-97102155D01*
X142100000Y-97102155D01*
X142100000Y-97500000D01*
X142950000Y-97500000D01*
X142950000Y-96650000D01*
X142552155Y-96650000D01*
X142492627Y-96656401D01*
X142492620Y-96656403D01*
X142357913Y-96706645D01*
X142357906Y-96706649D01*
X142242812Y-96792809D01*
X142242809Y-96792812D01*
X142156649Y-96907906D01*
X142156645Y-96907913D01*
X142106403Y-97042620D01*
X142106401Y-97042627D01*
X142100000Y-97102155D01*
X141300500Y-97102155D01*
X141300500Y-94809149D01*
X147326500Y-94809149D01*
X147326500Y-95030850D01*
X147361182Y-95249824D01*
X147429693Y-95460680D01*
X147530343Y-95658215D01*
X147660657Y-95837576D01*
X147817424Y-95994343D01*
X147996785Y-96124657D01*
X148090114Y-96172210D01*
X148194319Y-96225306D01*
X148194321Y-96225306D01*
X148194324Y-96225308D01*
X148405176Y-96293818D01*
X148624149Y-96328500D01*
X148624150Y-96328500D01*
X148845848Y-96328500D01*
X148845851Y-96328500D01*
X148865452Y-96325395D01*
X148934744Y-96334349D01*
X148988197Y-96379344D01*
X149008837Y-96446096D01*
X148990113Y-96513410D01*
X148972532Y-96535548D01*
X148925660Y-96582420D01*
X148925659Y-96582422D01*
X148925657Y-96582424D01*
X148876560Y-96650000D01*
X148795343Y-96761784D01*
X148694693Y-96959319D01*
X148626182Y-97170175D01*
X148591500Y-97389149D01*
X148591500Y-97610850D01*
X148626182Y-97829824D01*
X148694693Y-98040680D01*
X148776163Y-98200572D01*
X148795343Y-98238215D01*
X148925657Y-98417576D01*
X149082424Y-98574343D01*
X149261785Y-98704657D01*
X149355114Y-98752210D01*
X149459319Y-98805306D01*
X149459321Y-98805306D01*
X149459324Y-98805308D01*
X149670176Y-98873818D01*
X149889149Y-98908500D01*
X149889150Y-98908500D01*
X150110850Y-98908500D01*
X150110851Y-98908500D01*
X150329824Y-98873818D01*
X150540676Y-98805308D01*
X150738215Y-98704657D01*
X150917576Y-98574343D01*
X151074343Y-98417576D01*
X151204657Y-98238215D01*
X151305308Y-98040676D01*
X151373818Y-97829824D01*
X151408500Y-97610851D01*
X151408500Y-97389149D01*
X151373818Y-97170176D01*
X151305308Y-96959324D01*
X151305306Y-96959321D01*
X151305306Y-96959319D01*
X151204656Y-96761784D01*
X151164595Y-96706645D01*
X151074343Y-96582424D01*
X151032100Y-96540181D01*
X150998615Y-96478858D01*
X151003599Y-96409166D01*
X151045471Y-96353233D01*
X151110935Y-96328816D01*
X151119781Y-96328500D01*
X152223638Y-96328500D01*
X152223654Y-96328499D01*
X152250692Y-96325591D01*
X152284201Y-96321989D01*
X152421204Y-96270889D01*
X152538261Y-96183261D01*
X152625889Y-96066204D01*
X152676989Y-95929201D01*
X152680591Y-95895692D01*
X152683499Y-95868654D01*
X152683500Y-95868637D01*
X152683500Y-93971362D01*
X152683499Y-93971347D01*
X152678873Y-93928323D01*
X152678873Y-93928321D01*
X152678103Y-93921158D01*
X155199500Y-93921158D01*
X155199500Y-93921635D01*
X155199500Y-93928676D01*
X155199500Y-94078846D01*
X155230261Y-94233494D01*
X155230263Y-94233497D01*
X155237482Y-94250927D01*
X155241483Y-94260586D01*
X155242504Y-94265059D01*
X155248450Y-94277406D01*
X155249781Y-94280619D01*
X155290604Y-94379176D01*
X155310316Y-94408678D01*
X155315156Y-94415922D01*
X155320478Y-94426972D01*
X155333199Y-94442924D01*
X155336096Y-94447259D01*
X155336096Y-94447261D01*
X155336097Y-94447262D01*
X155378207Y-94510284D01*
X155378213Y-94510292D01*
X155416289Y-94548367D01*
X155421216Y-94553294D01*
X155432525Y-94567475D01*
X155446705Y-94578783D01*
X155489706Y-94621784D01*
X155489706Y-94621785D01*
X155489709Y-94621787D01*
X155489711Y-94621789D01*
X155557073Y-94666799D01*
X155573028Y-94679522D01*
X155584080Y-94684844D01*
X155620821Y-94709394D01*
X155620824Y-94709395D01*
X155620827Y-94709397D01*
X155672607Y-94730844D01*
X155722596Y-94751550D01*
X155734941Y-94757496D01*
X155739414Y-94758517D01*
X155749078Y-94762520D01*
X155749082Y-94762521D01*
X155766503Y-94769737D01*
X155896776Y-94795650D01*
X155921153Y-94800499D01*
X155921156Y-94800500D01*
X155921158Y-94800500D01*
X156078844Y-94800500D01*
X156078845Y-94800499D01*
X156233497Y-94769737D01*
X156260587Y-94758516D01*
X156265059Y-94757496D01*
X156277397Y-94751552D01*
X156379179Y-94709394D01*
X156415921Y-94684843D01*
X156426972Y-94679522D01*
X156442913Y-94666807D01*
X156510289Y-94621789D01*
X156553298Y-94578779D01*
X156567475Y-94567475D01*
X156578779Y-94553298D01*
X156621789Y-94510289D01*
X156666807Y-94442913D01*
X156679522Y-94426972D01*
X156684843Y-94415921D01*
X156709394Y-94379179D01*
X156751552Y-94277397D01*
X156757496Y-94265059D01*
X156758516Y-94260586D01*
X156769737Y-94233497D01*
X156800500Y-94078842D01*
X156800500Y-93921158D01*
X156800500Y-93921155D01*
X156800499Y-93921153D01*
X156784978Y-93843125D01*
X156769737Y-93766503D01*
X156758516Y-93739414D01*
X156757496Y-93734941D01*
X156751544Y-93722582D01*
X156750217Y-93719379D01*
X156724272Y-93656739D01*
X156709397Y-93620827D01*
X156709395Y-93620824D01*
X156709394Y-93620821D01*
X156684844Y-93584080D01*
X156679522Y-93573028D01*
X156666799Y-93557073D01*
X156621789Y-93489711D01*
X156621787Y-93489709D01*
X156621785Y-93489706D01*
X156583711Y-93451633D01*
X156578783Y-93446705D01*
X156567475Y-93432525D01*
X156553294Y-93421216D01*
X156548367Y-93416289D01*
X156510292Y-93378213D01*
X156510284Y-93378207D01*
X156447262Y-93336097D01*
X156447260Y-93336096D01*
X156442924Y-93333199D01*
X156426972Y-93320478D01*
X156415922Y-93315156D01*
X156408678Y-93310316D01*
X156379176Y-93290604D01*
X156280619Y-93249781D01*
X156277406Y-93248450D01*
X156265059Y-93242504D01*
X156260586Y-93241483D01*
X156250927Y-93237482D01*
X156233497Y-93230263D01*
X156233494Y-93230261D01*
X156078845Y-93199500D01*
X156078842Y-93199500D01*
X155921158Y-93199500D01*
X155921156Y-93199500D01*
X155766505Y-93230262D01*
X155766499Y-93230264D01*
X155749067Y-93237484D01*
X155749066Y-93237483D01*
X155739403Y-93241485D01*
X155734941Y-93242504D01*
X155722620Y-93248437D01*
X155719391Y-93249775D01*
X155719379Y-93249781D01*
X155620819Y-93290606D01*
X155591318Y-93310316D01*
X155591319Y-93310317D01*
X155584071Y-93315159D01*
X155573028Y-93320478D01*
X155557090Y-93333188D01*
X155552735Y-93336098D01*
X155489717Y-93378206D01*
X155489709Y-93378212D01*
X155446700Y-93421220D01*
X155432525Y-93432525D01*
X155421220Y-93446700D01*
X155378212Y-93489709D01*
X155378206Y-93489717D01*
X155336098Y-93552733D01*
X155336099Y-93552734D01*
X155333189Y-93557088D01*
X155320478Y-93573028D01*
X155315161Y-93584067D01*
X155310318Y-93591316D01*
X155310319Y-93591316D01*
X155290606Y-93620819D01*
X155249781Y-93719379D01*
X155246943Y-93725721D01*
X155242574Y-93734793D01*
X155242572Y-93734797D01*
X155242504Y-93734941D01*
X155241482Y-93739416D01*
X155230263Y-93766503D01*
X155199500Y-93921158D01*
X152678103Y-93921158D01*
X152676989Y-93910798D01*
X152676988Y-93910795D01*
X152651748Y-93843125D01*
X152625889Y-93773796D01*
X152538261Y-93656739D01*
X152421204Y-93569111D01*
X152284203Y-93518011D01*
X152223654Y-93511500D01*
X152223638Y-93511500D01*
X150326362Y-93511500D01*
X150326345Y-93511500D01*
X150265797Y-93518011D01*
X150265795Y-93518011D01*
X150128795Y-93569111D01*
X150011739Y-93656739D01*
X149924111Y-93773795D01*
X149898252Y-93843125D01*
X149856380Y-93899058D01*
X149790916Y-93923474D01*
X149722643Y-93908622D01*
X149694390Y-93887471D01*
X149652578Y-93845659D01*
X149652576Y-93845657D01*
X149473215Y-93715343D01*
X149275680Y-93614693D01*
X149064824Y-93546182D01*
X148845851Y-93511500D01*
X148624149Y-93511500D01*
X148514662Y-93528841D01*
X148405175Y-93546182D01*
X148194319Y-93614693D01*
X147996784Y-93715343D01*
X147926360Y-93766510D01*
X147817424Y-93845657D01*
X147817422Y-93845659D01*
X147817421Y-93845659D01*
X147660659Y-94002421D01*
X147660659Y-94002422D01*
X147660657Y-94002424D01*
X147605482Y-94078365D01*
X147530343Y-94181784D01*
X147429693Y-94379319D01*
X147361182Y-94590175D01*
X147326500Y-94809149D01*
X141300500Y-94809149D01*
X141300500Y-93921158D01*
X143199500Y-93921158D01*
X143199500Y-93921635D01*
X143199500Y-93928676D01*
X143199500Y-94078846D01*
X143230261Y-94233494D01*
X143230263Y-94233497D01*
X143237482Y-94250927D01*
X143241483Y-94260586D01*
X143242504Y-94265059D01*
X143248450Y-94277406D01*
X143249781Y-94280619D01*
X143290604Y-94379176D01*
X143310316Y-94408678D01*
X143315156Y-94415922D01*
X143320478Y-94426972D01*
X143333199Y-94442924D01*
X143336096Y-94447259D01*
X143336096Y-94447261D01*
X143336097Y-94447262D01*
X143378207Y-94510284D01*
X143378213Y-94510292D01*
X143416289Y-94548367D01*
X143421216Y-94553294D01*
X143432525Y-94567475D01*
X143446705Y-94578783D01*
X143489706Y-94621784D01*
X143489706Y-94621785D01*
X143489709Y-94621787D01*
X143489711Y-94621789D01*
X143557073Y-94666799D01*
X143573028Y-94679522D01*
X143584080Y-94684844D01*
X143620821Y-94709394D01*
X143620824Y-94709395D01*
X143620827Y-94709397D01*
X143672607Y-94730844D01*
X143722596Y-94751550D01*
X143734941Y-94757496D01*
X143739414Y-94758517D01*
X143749078Y-94762520D01*
X143749082Y-94762521D01*
X143766503Y-94769737D01*
X143896776Y-94795650D01*
X143921153Y-94800499D01*
X143921156Y-94800500D01*
X143921158Y-94800500D01*
X144078844Y-94800500D01*
X144078845Y-94800499D01*
X144233497Y-94769737D01*
X144260587Y-94758516D01*
X144265059Y-94757496D01*
X144277397Y-94751552D01*
X144379179Y-94709394D01*
X144408681Y-94689680D01*
X144423765Y-94681066D01*
X144426972Y-94679522D01*
X144438860Y-94670041D01*
X144447242Y-94663915D01*
X144510289Y-94621789D01*
X144553298Y-94578779D01*
X144567475Y-94567475D01*
X144578779Y-94553298D01*
X144621789Y-94510289D01*
X144666807Y-94442913D01*
X144679522Y-94426972D01*
X144684843Y-94415921D01*
X144709394Y-94379179D01*
X144751552Y-94277397D01*
X144757496Y-94265059D01*
X144758516Y-94260586D01*
X144769737Y-94233497D01*
X144800500Y-94078842D01*
X144800500Y-93921158D01*
X144800500Y-93921155D01*
X144800499Y-93921153D01*
X144784978Y-93843125D01*
X144769737Y-93766503D01*
X144758516Y-93739414D01*
X144757496Y-93734941D01*
X144751544Y-93722582D01*
X144750217Y-93719379D01*
X144724272Y-93656739D01*
X144709397Y-93620827D01*
X144709395Y-93620824D01*
X144709394Y-93620821D01*
X144684844Y-93584080D01*
X144679522Y-93573028D01*
X144666799Y-93557073D01*
X144621789Y-93489711D01*
X144621787Y-93489709D01*
X144621785Y-93489706D01*
X144583711Y-93451633D01*
X144578783Y-93446705D01*
X144567475Y-93432525D01*
X144553294Y-93421216D01*
X144548367Y-93416289D01*
X144510292Y-93378213D01*
X144510284Y-93378207D01*
X144447262Y-93336097D01*
X144447260Y-93336096D01*
X144442924Y-93333199D01*
X144426972Y-93320478D01*
X144415922Y-93315156D01*
X144408678Y-93310316D01*
X144379176Y-93290604D01*
X144280619Y-93249781D01*
X144277406Y-93248450D01*
X144265059Y-93242504D01*
X144260586Y-93241483D01*
X144250927Y-93237482D01*
X144233497Y-93230263D01*
X144233494Y-93230261D01*
X144078845Y-93199500D01*
X144078842Y-93199500D01*
X143921158Y-93199500D01*
X143921156Y-93199500D01*
X143766505Y-93230262D01*
X143766499Y-93230264D01*
X143749067Y-93237484D01*
X143749066Y-93237483D01*
X143739403Y-93241485D01*
X143734941Y-93242504D01*
X143722620Y-93248437D01*
X143719391Y-93249775D01*
X143719379Y-93249781D01*
X143620819Y-93290606D01*
X143591318Y-93310316D01*
X143591319Y-93310317D01*
X143584071Y-93315159D01*
X143573028Y-93320478D01*
X143557090Y-93333188D01*
X143552735Y-93336098D01*
X143489717Y-93378206D01*
X143489709Y-93378212D01*
X143446700Y-93421220D01*
X143432525Y-93432525D01*
X143421220Y-93446700D01*
X143378212Y-93489709D01*
X143378206Y-93489717D01*
X143336098Y-93552733D01*
X143336099Y-93552734D01*
X143333189Y-93557088D01*
X143320478Y-93573028D01*
X143315161Y-93584067D01*
X143310318Y-93591316D01*
X143310319Y-93591316D01*
X143290606Y-93620819D01*
X143249781Y-93719379D01*
X143246943Y-93725721D01*
X143242574Y-93734793D01*
X143242572Y-93734797D01*
X143242504Y-93734941D01*
X143241482Y-93739416D01*
X143230263Y-93766503D01*
X143199500Y-93921158D01*
X141300500Y-93921158D01*
X141300500Y-92006092D01*
X141301097Y-91993938D01*
X141312063Y-91882598D01*
X141312064Y-91882596D01*
X141312063Y-91882592D01*
X141314571Y-91867177D01*
X141318884Y-91848278D01*
X141321099Y-91839934D01*
X141349834Y-91745206D01*
X141356762Y-91727432D01*
X141359370Y-91722016D01*
X141361666Y-91717494D01*
X141412634Y-91622141D01*
X141426131Y-91601942D01*
X141497635Y-91514814D01*
X141514814Y-91497635D01*
X141601942Y-91426131D01*
X141622141Y-91412634D01*
X141717494Y-91361666D01*
X141722016Y-91359370D01*
X141727432Y-91356762D01*
X141745206Y-91349834D01*
X141839934Y-91321099D01*
X141848278Y-91318884D01*
X141867177Y-91314571D01*
X141882592Y-91312063D01*
X141993939Y-91301097D01*
X142006093Y-91300500D01*
X157993907Y-91300500D01*
X158006061Y-91301097D01*
G37*
%TD.AperFunction*%
%TD*%
M02*
