%TF.GenerationSoftware,KiCad,Pcbnew,9.0.0*%
%TF.CreationDate,2025-07-12T00:05:01+02:00*%
%TF.ProjectId,button-pcb,62757474-6f6e-42d7-9063-622e6b696361,rev?*%
%TF.SameCoordinates,Original*%
%TF.FileFunction,Legend,Top*%
%TF.FilePolarity,Positive*%
%FSLAX46Y46*%
G04 Gerber Fmt 4.6, Leading zero omitted, Abs format (unit mm)*
G04 Created by KiCad (PCBNEW 9.0.0) date 2025-07-12 00:05:01*
%MOMM*%
%LPD*%
G01*
G04 APERTURE LIST*
%ADD10C,0.150000*%
%ADD11C,0.120000*%
G04 APERTURE END LIST*
D10*
X154233333Y-97254819D02*
X153900000Y-96778628D01*
X153661905Y-97254819D02*
X153661905Y-96254819D01*
X153661905Y-96254819D02*
X154042857Y-96254819D01*
X154042857Y-96254819D02*
X154138095Y-96302438D01*
X154138095Y-96302438D02*
X154185714Y-96350057D01*
X154185714Y-96350057D02*
X154233333Y-96445295D01*
X154233333Y-96445295D02*
X154233333Y-96588152D01*
X154233333Y-96588152D02*
X154185714Y-96683390D01*
X154185714Y-96683390D02*
X154138095Y-96731009D01*
X154138095Y-96731009D02*
X154042857Y-96778628D01*
X154042857Y-96778628D02*
X153661905Y-96778628D01*
X154614286Y-96350057D02*
X154661905Y-96302438D01*
X154661905Y-96302438D02*
X154757143Y-96254819D01*
X154757143Y-96254819D02*
X154995238Y-96254819D01*
X154995238Y-96254819D02*
X155090476Y-96302438D01*
X155090476Y-96302438D02*
X155138095Y-96350057D01*
X155138095Y-96350057D02*
X155185714Y-96445295D01*
X155185714Y-96445295D02*
X155185714Y-96540533D01*
X155185714Y-96540533D02*
X155138095Y-96683390D01*
X155138095Y-96683390D02*
X154566667Y-97254819D01*
X154566667Y-97254819D02*
X155185714Y-97254819D01*
X149261905Y-108254819D02*
X149261905Y-107254819D01*
X149261905Y-107254819D02*
X149500000Y-107254819D01*
X149500000Y-107254819D02*
X149642857Y-107302438D01*
X149642857Y-107302438D02*
X149738095Y-107397676D01*
X149738095Y-107397676D02*
X149785714Y-107492914D01*
X149785714Y-107492914D02*
X149833333Y-107683390D01*
X149833333Y-107683390D02*
X149833333Y-107826247D01*
X149833333Y-107826247D02*
X149785714Y-108016723D01*
X149785714Y-108016723D02*
X149738095Y-108111961D01*
X149738095Y-108111961D02*
X149642857Y-108207200D01*
X149642857Y-108207200D02*
X149500000Y-108254819D01*
X149500000Y-108254819D02*
X149261905Y-108254819D01*
X150214286Y-107350057D02*
X150261905Y-107302438D01*
X150261905Y-107302438D02*
X150357143Y-107254819D01*
X150357143Y-107254819D02*
X150595238Y-107254819D01*
X150595238Y-107254819D02*
X150690476Y-107302438D01*
X150690476Y-107302438D02*
X150738095Y-107350057D01*
X150738095Y-107350057D02*
X150785714Y-107445295D01*
X150785714Y-107445295D02*
X150785714Y-107540533D01*
X150785714Y-107540533D02*
X150738095Y-107683390D01*
X150738095Y-107683390D02*
X150166667Y-108254819D01*
X150166667Y-108254819D02*
X150785714Y-108254819D01*
X145433333Y-97254819D02*
X145100000Y-96778628D01*
X144861905Y-97254819D02*
X144861905Y-96254819D01*
X144861905Y-96254819D02*
X145242857Y-96254819D01*
X145242857Y-96254819D02*
X145338095Y-96302438D01*
X145338095Y-96302438D02*
X145385714Y-96350057D01*
X145385714Y-96350057D02*
X145433333Y-96445295D01*
X145433333Y-96445295D02*
X145433333Y-96588152D01*
X145433333Y-96588152D02*
X145385714Y-96683390D01*
X145385714Y-96683390D02*
X145338095Y-96731009D01*
X145338095Y-96731009D02*
X145242857Y-96778628D01*
X145242857Y-96778628D02*
X144861905Y-96778628D01*
X146385714Y-97254819D02*
X145814286Y-97254819D01*
X146100000Y-97254819D02*
X146100000Y-96254819D01*
X146100000Y-96254819D02*
X146004762Y-96397676D01*
X146004762Y-96397676D02*
X145909524Y-96492914D01*
X145909524Y-96492914D02*
X145814286Y-96540533D01*
X152666667Y-104407200D02*
X152809524Y-104454819D01*
X152809524Y-104454819D02*
X153047619Y-104454819D01*
X153047619Y-104454819D02*
X153142857Y-104407200D01*
X153142857Y-104407200D02*
X153190476Y-104359580D01*
X153190476Y-104359580D02*
X153238095Y-104264342D01*
X153238095Y-104264342D02*
X153238095Y-104169104D01*
X153238095Y-104169104D02*
X153190476Y-104073866D01*
X153190476Y-104073866D02*
X153142857Y-104026247D01*
X153142857Y-104026247D02*
X153047619Y-103978628D01*
X153047619Y-103978628D02*
X152857143Y-103931009D01*
X152857143Y-103931009D02*
X152761905Y-103883390D01*
X152761905Y-103883390D02*
X152714286Y-103835771D01*
X152714286Y-103835771D02*
X152666667Y-103740533D01*
X152666667Y-103740533D02*
X152666667Y-103645295D01*
X152666667Y-103645295D02*
X152714286Y-103550057D01*
X152714286Y-103550057D02*
X152761905Y-103502438D01*
X152761905Y-103502438D02*
X152857143Y-103454819D01*
X152857143Y-103454819D02*
X153095238Y-103454819D01*
X153095238Y-103454819D02*
X153238095Y-103502438D01*
X153571429Y-103454819D02*
X153809524Y-104454819D01*
X153809524Y-104454819D02*
X154000000Y-103740533D01*
X154000000Y-103740533D02*
X154190476Y-104454819D01*
X154190476Y-104454819D02*
X154428572Y-103454819D01*
X155333333Y-104454819D02*
X154761905Y-104454819D01*
X155047619Y-104454819D02*
X155047619Y-103454819D01*
X155047619Y-103454819D02*
X154952381Y-103597676D01*
X154952381Y-103597676D02*
X154857143Y-103692914D01*
X154857143Y-103692914D02*
X154761905Y-103740533D01*
X149261905Y-92654819D02*
X149261905Y-91654819D01*
X149261905Y-91654819D02*
X149500000Y-91654819D01*
X149500000Y-91654819D02*
X149642857Y-91702438D01*
X149642857Y-91702438D02*
X149738095Y-91797676D01*
X149738095Y-91797676D02*
X149785714Y-91892914D01*
X149785714Y-91892914D02*
X149833333Y-92083390D01*
X149833333Y-92083390D02*
X149833333Y-92226247D01*
X149833333Y-92226247D02*
X149785714Y-92416723D01*
X149785714Y-92416723D02*
X149738095Y-92511961D01*
X149738095Y-92511961D02*
X149642857Y-92607200D01*
X149642857Y-92607200D02*
X149500000Y-92654819D01*
X149500000Y-92654819D02*
X149261905Y-92654819D01*
X150785714Y-92654819D02*
X150214286Y-92654819D01*
X150500000Y-92654819D02*
X150500000Y-91654819D01*
X150500000Y-91654819D02*
X150404762Y-91797676D01*
X150404762Y-91797676D02*
X150309524Y-91892914D01*
X150309524Y-91892914D02*
X150214286Y-91940533D01*
D11*
%TO.C,R2*%
X153490000Y-99222936D02*
X153490000Y-100677064D01*
X155310000Y-99222936D02*
X155310000Y-100677064D01*
%TO.C,D2*%
X151565000Y-104000000D02*
X151565000Y-103844000D01*
X151565000Y-106316000D02*
X151565000Y-106160000D01*
X148332665Y-104001392D02*
G75*
G02*
X151565000Y-103844484I1672335J-1078608D01*
G01*
X148963870Y-104000163D02*
G75*
G02*
X151045961Y-104000000I1041130J-1079837D01*
G01*
X151045961Y-106160000D02*
G75*
G02*
X148963870Y-106159837I-1040961J1080000D01*
G01*
X151565000Y-106315516D02*
G75*
G02*
X148332665Y-106158608I-1560000J1235516D01*
G01*
%TO.C,R1*%
X144690000Y-100727064D02*
X144690000Y-99272936D01*
X146510000Y-100727064D02*
X146510000Y-99272936D01*
%TO.C,SW1*%
X146800000Y-96800000D02*
X149200000Y-96800000D01*
X146800000Y-103200000D02*
X146800000Y-96800000D01*
X149200000Y-103200000D02*
X146800000Y-103200000D01*
X150800000Y-96800000D02*
X153200000Y-96800000D01*
X153200000Y-96800000D02*
X153200000Y-103200000D01*
X153200000Y-103200000D02*
X150800000Y-103200000D01*
%TO.C,D1*%
X151565000Y-93840000D02*
X151565000Y-93684000D01*
X151565000Y-96156000D02*
X151565000Y-96000000D01*
X148332665Y-93841392D02*
G75*
G02*
X151565000Y-93684484I1672335J-1078608D01*
G01*
X148963870Y-93840163D02*
G75*
G02*
X151045961Y-93840000I1041130J-1079837D01*
G01*
X151045961Y-96000000D02*
G75*
G02*
X148963870Y-95999837I-1040961J1080000D01*
G01*
X151565000Y-96155516D02*
G75*
G02*
X148332665Y-95998608I-1560000J1235516D01*
G01*
%TD*%
M02*
