%TF.GenerationSoftware,KiCad,Pcbnew,9.0.0*%
%TF.CreationDate,2025-07-12T00:05:00+02:00*%
%TF.ProjectId,button-pcb,62757474-6f6e-42d7-9063-622e6b696361,rev?*%
%TF.SameCoordinates,Original*%
%TF.FileFunction,Copper,L1,Top*%
%TF.FilePolarity,Positive*%
%FSLAX46Y46*%
G04 Gerber Fmt 4.6, Leading zero omitted, Abs format (unit mm)*
G04 Created by KiCad (PCBNEW 9.0.0) date 2025-07-12 00:05:00*
%MOMM*%
%LPD*%
G01*
G04 APERTURE LIST*
G04 Aperture macros list*
%AMRoundRect*
0 Rectangle with rounded corners*
0 $1 Rounding radius*
0 $2 $3 $4 $5 $6 $7 $8 $9 X,Y pos of 4 corners*
0 Add a 4 corners polygon primitive as box body*
4,1,4,$2,$3,$4,$5,$6,$7,$8,$9,$2,$3,0*
0 Add four circle primitives for the rounded corners*
1,1,$1+$1,$2,$3*
1,1,$1+$1,$4,$5*
1,1,$1+$1,$6,$7*
1,1,$1+$1,$8,$9*
0 Add four rect primitives between the rounded corners*
20,1,$1+$1,$2,$3,$4,$5,0*
20,1,$1+$1,$4,$5,$6,$7,0*
20,1,$1+$1,$6,$7,$8,$9,0*
20,1,$1+$1,$8,$9,$2,$3,0*%
G04 Aperture macros list end*
%TA.AperFunction,SMDPad,CuDef*%
%ADD10RoundRect,0.250000X-0.625000X0.400000X-0.625000X-0.400000X0.625000X-0.400000X0.625000X0.400000X0*%
%TD*%
%TA.AperFunction,ComponentPad*%
%ADD11R,1.800000X1.800000*%
%TD*%
%TA.AperFunction,ComponentPad*%
%ADD12C,1.800000*%
%TD*%
%TA.AperFunction,SMDPad,CuDef*%
%ADD13RoundRect,0.250000X0.625000X-0.400000X0.625000X0.400000X-0.625000X0.400000X-0.625000X-0.400000X0*%
%TD*%
%TA.AperFunction,ComponentPad*%
%ADD14RoundRect,0.250000X-0.615000X0.265000X-0.615000X-0.265000X0.615000X-0.265000X0.615000X0.265000X0*%
%TD*%
%TA.AperFunction,ComponentPad*%
%ADD15O,1.730000X1.030000*%
%TD*%
%TA.AperFunction,Conductor*%
%ADD16C,0.250000*%
%TD*%
G04 APERTURE END LIST*
D10*
%TO.P,R2,1*%
%TO.N,GND*%
X154400000Y-98400000D03*
%TO.P,R2,2*%
%TO.N,Net-(D2-K)*%
X154400000Y-101500000D03*
%TD*%
D11*
%TO.P,D2,1,K*%
%TO.N,Net-(D2-K)*%
X151275000Y-105080000D03*
D12*
%TO.P,D2,2,A*%
%TO.N,Net-(D2-A)*%
X148735000Y-105080000D03*
%TD*%
D13*
%TO.P,R1,1*%
%TO.N,GND*%
X145600000Y-101550000D03*
%TO.P,R1,2*%
%TO.N,Net-(D1-K)*%
X145600000Y-98450000D03*
%TD*%
D12*
%TO.P,SW1,1*%
%TO.N,GND*%
X150000000Y-102500000D03*
%TO.P,SW1,2*%
%TO.N,Net-(J1-Pin_1)*%
X150000000Y-97500000D03*
%TD*%
D11*
%TO.P,D1,1,K*%
%TO.N,Net-(D1-K)*%
X151275000Y-94920000D03*
D12*
%TO.P,D1,2,A*%
%TO.N,Net-(D1-A)*%
X148735000Y-94920000D03*
%TD*%
D14*
%TO.P,J1,1,Pin_1*%
%TO.N,Net-(J1-Pin_1)*%
X143200000Y-97800000D03*
D15*
%TO.P,J1,2,Pin_2*%
%TO.N,Net-(D1-A)*%
X143200000Y-99300000D03*
%TO.P,J1,3,Pin_3*%
%TO.N,Net-(D2-A)*%
X143200000Y-100800000D03*
%TO.P,J1,4,Pin_4*%
%TO.N,GND*%
X143200000Y-102300000D03*
%TD*%
D16*
%TO.N,GND*%
X144400000Y-101600000D02*
X144400000Y-102600000D01*
X150000000Y-102500000D02*
X150500000Y-102500000D01*
X154270000Y-98730000D02*
X154445000Y-98730000D01*
X144400000Y-101600000D02*
X144400000Y-100400000D01*
%TO.N,Net-(D1-K)*%
X146938826Y-98450000D02*
X150468826Y-94920000D01*
X150468826Y-94920000D02*
X151275000Y-94920000D01*
X145600000Y-98450000D02*
X146938826Y-98450000D01*
%TO.N,Net-(D2-K)*%
X151275000Y-104625000D02*
X154400000Y-101500000D01*
X151275000Y-105080000D02*
X151275000Y-104625000D01*
X151275000Y-105080000D02*
X151275000Y-104220000D01*
%TO.N,Net-(D2-A)*%
X148735000Y-105080000D02*
X148716000Y-105099000D01*
X143615000Y-100800000D02*
X143200000Y-100800000D01*
%TD*%
%TA.AperFunction,Conductor*%
%TO.N,GND*%
G36*
X158006061Y-91301097D02*
G01*
X158117401Y-91312063D01*
X158132827Y-91314572D01*
X158151707Y-91318881D01*
X158160079Y-91321104D01*
X158254784Y-91349832D01*
X158272576Y-91356766D01*
X158277944Y-91359352D01*
X158282544Y-91361687D01*
X158377853Y-91412631D01*
X158398062Y-91426135D01*
X158485180Y-91497631D01*
X158502368Y-91514819D01*
X158573865Y-91601938D01*
X158587369Y-91622148D01*
X158587370Y-91622150D01*
X158638292Y-91717418D01*
X158640655Y-91722070D01*
X158643228Y-91727413D01*
X158650168Y-91745219D01*
X158678892Y-91839911D01*
X158681123Y-91848316D01*
X158685424Y-91867162D01*
X158687935Y-91882596D01*
X158698903Y-91993938D01*
X158699500Y-92006094D01*
X158699500Y-107993905D01*
X158698903Y-108006061D01*
X158687935Y-108117402D01*
X158685424Y-108132836D01*
X158681123Y-108151682D01*
X158678892Y-108160087D01*
X158650168Y-108254779D01*
X158643228Y-108272585D01*
X158640655Y-108277928D01*
X158638292Y-108282580D01*
X158587370Y-108377849D01*
X158573865Y-108398061D01*
X158502368Y-108485180D01*
X158485180Y-108502368D01*
X158398061Y-108573865D01*
X158377849Y-108587370D01*
X158282580Y-108638292D01*
X158277928Y-108640655D01*
X158272585Y-108643228D01*
X158254779Y-108650168D01*
X158160087Y-108678892D01*
X158151682Y-108681123D01*
X158132836Y-108685424D01*
X158117402Y-108687935D01*
X158010335Y-108698482D01*
X158006060Y-108698903D01*
X157993906Y-108699500D01*
X142006094Y-108699500D01*
X141993939Y-108698903D01*
X141989121Y-108698428D01*
X141882596Y-108687935D01*
X141867162Y-108685424D01*
X141848316Y-108681123D01*
X141839911Y-108678892D01*
X141745219Y-108650168D01*
X141727413Y-108643228D01*
X141722070Y-108640655D01*
X141717418Y-108638292D01*
X141622150Y-108587370D01*
X141601938Y-108573865D01*
X141514819Y-108502368D01*
X141497631Y-108485180D01*
X141426135Y-108398062D01*
X141412630Y-108377851D01*
X141388021Y-108331811D01*
X141361687Y-108282544D01*
X141359344Y-108277928D01*
X141356766Y-108272576D01*
X141349830Y-108254779D01*
X141321106Y-108160087D01*
X141318881Y-108151707D01*
X141314572Y-108132827D01*
X141312063Y-108117400D01*
X141301097Y-108006061D01*
X141300500Y-107993907D01*
X141300500Y-105921158D01*
X143199500Y-105921158D01*
X143199500Y-105921635D01*
X143199500Y-105928676D01*
X143199500Y-106078846D01*
X143230261Y-106233494D01*
X143230263Y-106233497D01*
X143237482Y-106250927D01*
X143241483Y-106260586D01*
X143242504Y-106265059D01*
X143248450Y-106277406D01*
X143249781Y-106280619D01*
X143290604Y-106379176D01*
X143310316Y-106408678D01*
X143315156Y-106415922D01*
X143320478Y-106426972D01*
X143333199Y-106442924D01*
X143336096Y-106447259D01*
X143336096Y-106447261D01*
X143336097Y-106447262D01*
X143378207Y-106510284D01*
X143378213Y-106510292D01*
X143416289Y-106548367D01*
X143421216Y-106553294D01*
X143432525Y-106567475D01*
X143446705Y-106578783D01*
X143489706Y-106621784D01*
X143489706Y-106621785D01*
X143489709Y-106621787D01*
X143489711Y-106621789D01*
X143557073Y-106666799D01*
X143573028Y-106679522D01*
X143584080Y-106684844D01*
X143620821Y-106709394D01*
X143620824Y-106709395D01*
X143620827Y-106709397D01*
X143672607Y-106730844D01*
X143722596Y-106751550D01*
X143734941Y-106757496D01*
X143739414Y-106758517D01*
X143749078Y-106762520D01*
X143749082Y-106762521D01*
X143766503Y-106769737D01*
X143896776Y-106795650D01*
X143921153Y-106800499D01*
X143921156Y-106800500D01*
X143921158Y-106800500D01*
X144078844Y-106800500D01*
X144078845Y-106800499D01*
X144233497Y-106769737D01*
X144260587Y-106758516D01*
X144265059Y-106757496D01*
X144277397Y-106751552D01*
X144379179Y-106709394D01*
X144415921Y-106684843D01*
X144426972Y-106679522D01*
X144442913Y-106666807D01*
X144510289Y-106621789D01*
X144553298Y-106578779D01*
X144567475Y-106567475D01*
X144578779Y-106553298D01*
X144621789Y-106510289D01*
X144666807Y-106442913D01*
X144679522Y-106426972D01*
X144684843Y-106415921D01*
X144709394Y-106379179D01*
X144751552Y-106277397D01*
X144757496Y-106265059D01*
X144758516Y-106260586D01*
X144769737Y-106233497D01*
X144800500Y-106078842D01*
X144800500Y-105921158D01*
X144800500Y-105921155D01*
X144800499Y-105921153D01*
X144769738Y-105766510D01*
X144769737Y-105766503D01*
X144758516Y-105739414D01*
X144757496Y-105734941D01*
X144751544Y-105722582D01*
X144750217Y-105719379D01*
X144730844Y-105672607D01*
X144709397Y-105620827D01*
X144709395Y-105620824D01*
X144709394Y-105620821D01*
X144684844Y-105584080D01*
X144679522Y-105573028D01*
X144666799Y-105557073D01*
X144621789Y-105489711D01*
X144621787Y-105489709D01*
X144621785Y-105489706D01*
X144583711Y-105451633D01*
X144578783Y-105446705D01*
X144567475Y-105432525D01*
X144553294Y-105421216D01*
X144548367Y-105416289D01*
X144510292Y-105378213D01*
X144510284Y-105378207D01*
X144447262Y-105336097D01*
X144447260Y-105336096D01*
X144442924Y-105333199D01*
X144426972Y-105320478D01*
X144415922Y-105315156D01*
X144408678Y-105310316D01*
X144379176Y-105290604D01*
X144280619Y-105249781D01*
X144277406Y-105248450D01*
X144265059Y-105242504D01*
X144260586Y-105241483D01*
X144250927Y-105237482D01*
X144233497Y-105230263D01*
X144233494Y-105230261D01*
X144078845Y-105199500D01*
X144078842Y-105199500D01*
X143921158Y-105199500D01*
X143921156Y-105199500D01*
X143766505Y-105230262D01*
X143766499Y-105230264D01*
X143749067Y-105237484D01*
X143749066Y-105237483D01*
X143739403Y-105241485D01*
X143734941Y-105242504D01*
X143722620Y-105248437D01*
X143719391Y-105249775D01*
X143719379Y-105249781D01*
X143620819Y-105290606D01*
X143591318Y-105310316D01*
X143591319Y-105310317D01*
X143584071Y-105315159D01*
X143573028Y-105320478D01*
X143557090Y-105333188D01*
X143552735Y-105336098D01*
X143489717Y-105378206D01*
X143489709Y-105378212D01*
X143446700Y-105421220D01*
X143432525Y-105432525D01*
X143421220Y-105446700D01*
X143378212Y-105489709D01*
X143378206Y-105489717D01*
X143336098Y-105552733D01*
X143336099Y-105552734D01*
X143333189Y-105557088D01*
X143320478Y-105573028D01*
X143315161Y-105584067D01*
X143310318Y-105591316D01*
X143310319Y-105591316D01*
X143290606Y-105620819D01*
X143249781Y-105719379D01*
X143246943Y-105725721D01*
X143242574Y-105734793D01*
X143242572Y-105734797D01*
X143242504Y-105734941D01*
X143241482Y-105739416D01*
X143230263Y-105766503D01*
X143199500Y-105921158D01*
X141300500Y-105921158D01*
X141300500Y-104989448D01*
X147584500Y-104989448D01*
X147584500Y-105170551D01*
X147612829Y-105349410D01*
X147668787Y-105521636D01*
X147668788Y-105521639D01*
X147751006Y-105682997D01*
X147857441Y-105829494D01*
X147857445Y-105829499D01*
X147985500Y-105957554D01*
X147985505Y-105957558D01*
X148050361Y-106004678D01*
X148132006Y-106063996D01*
X148237484Y-106117740D01*
X148293360Y-106146211D01*
X148293363Y-106146212D01*
X148379476Y-106174191D01*
X148465591Y-106202171D01*
X148548429Y-106215291D01*
X148644449Y-106230500D01*
X148644454Y-106230500D01*
X148825551Y-106230500D01*
X148917310Y-106215966D01*
X149004409Y-106202171D01*
X149176639Y-106146211D01*
X149337994Y-106063996D01*
X149484501Y-105957553D01*
X149612553Y-105829501D01*
X149718996Y-105682994D01*
X149801211Y-105521639D01*
X149857171Y-105349409D01*
X149868891Y-105275408D01*
X149878027Y-105217733D01*
X149907956Y-105154598D01*
X149967268Y-105117667D01*
X150037131Y-105118665D01*
X150095363Y-105157275D01*
X150123477Y-105221239D01*
X150124500Y-105237131D01*
X150124500Y-106004678D01*
X150139032Y-106077735D01*
X150139033Y-106077739D01*
X150139773Y-106078846D01*
X150194399Y-106160601D01*
X150256614Y-106202171D01*
X150277260Y-106215966D01*
X150277264Y-106215967D01*
X150350321Y-106230499D01*
X150350324Y-106230500D01*
X150350326Y-106230500D01*
X152199676Y-106230500D01*
X152199677Y-106230499D01*
X152272740Y-106215966D01*
X152355601Y-106160601D01*
X152410966Y-106077740D01*
X152425500Y-106004674D01*
X152425500Y-105921158D01*
X155199500Y-105921158D01*
X155199500Y-105921635D01*
X155199500Y-105928676D01*
X155199500Y-106078846D01*
X155230261Y-106233494D01*
X155230263Y-106233497D01*
X155237482Y-106250927D01*
X155241483Y-106260586D01*
X155242504Y-106265059D01*
X155248450Y-106277406D01*
X155249781Y-106280619D01*
X155290604Y-106379176D01*
X155310316Y-106408678D01*
X155315156Y-106415922D01*
X155320478Y-106426972D01*
X155333199Y-106442924D01*
X155336096Y-106447259D01*
X155336096Y-106447261D01*
X155336097Y-106447262D01*
X155378207Y-106510284D01*
X155378213Y-106510292D01*
X155416289Y-106548367D01*
X155421216Y-106553294D01*
X155432525Y-106567475D01*
X155446705Y-106578783D01*
X155489706Y-106621784D01*
X155489706Y-106621785D01*
X155489709Y-106621787D01*
X155489711Y-106621789D01*
X155557073Y-106666799D01*
X155573028Y-106679522D01*
X155584080Y-106684844D01*
X155620821Y-106709394D01*
X155620824Y-106709395D01*
X155620827Y-106709397D01*
X155672607Y-106730844D01*
X155722596Y-106751550D01*
X155734941Y-106757496D01*
X155739414Y-106758517D01*
X155749078Y-106762520D01*
X155749082Y-106762521D01*
X155766503Y-106769737D01*
X155896776Y-106795650D01*
X155921153Y-106800499D01*
X155921156Y-106800500D01*
X155921158Y-106800500D01*
X156078844Y-106800500D01*
X156078845Y-106800499D01*
X156233497Y-106769737D01*
X156260587Y-106758516D01*
X156265059Y-106757496D01*
X156277397Y-106751552D01*
X156379179Y-106709394D01*
X156415921Y-106684843D01*
X156426972Y-106679522D01*
X156442913Y-106666807D01*
X156510289Y-106621789D01*
X156553298Y-106578779D01*
X156567475Y-106567475D01*
X156578779Y-106553298D01*
X156621789Y-106510289D01*
X156666807Y-106442913D01*
X156679522Y-106426972D01*
X156684843Y-106415921D01*
X156709394Y-106379179D01*
X156751552Y-106277397D01*
X156757496Y-106265059D01*
X156758516Y-106260586D01*
X156769737Y-106233497D01*
X156800500Y-106078842D01*
X156800500Y-105921158D01*
X156800500Y-105921155D01*
X156800499Y-105921153D01*
X156769738Y-105766510D01*
X156769737Y-105766503D01*
X156758516Y-105739414D01*
X156757496Y-105734941D01*
X156751544Y-105722582D01*
X156750217Y-105719379D01*
X156730844Y-105672607D01*
X156709397Y-105620827D01*
X156709395Y-105620824D01*
X156709394Y-105620821D01*
X156684844Y-105584080D01*
X156679522Y-105573028D01*
X156666799Y-105557073D01*
X156621789Y-105489711D01*
X156621787Y-105489709D01*
X156621785Y-105489706D01*
X156583711Y-105451633D01*
X156578783Y-105446705D01*
X156567475Y-105432525D01*
X156553294Y-105421216D01*
X156548367Y-105416289D01*
X156510292Y-105378213D01*
X156510284Y-105378207D01*
X156447262Y-105336097D01*
X156447260Y-105336096D01*
X156442924Y-105333199D01*
X156426972Y-105320478D01*
X156415922Y-105315156D01*
X156408678Y-105310316D01*
X156379176Y-105290604D01*
X156280619Y-105249781D01*
X156277406Y-105248450D01*
X156265059Y-105242504D01*
X156260586Y-105241483D01*
X156250927Y-105237482D01*
X156233497Y-105230263D01*
X156233494Y-105230261D01*
X156078845Y-105199500D01*
X156078842Y-105199500D01*
X155921158Y-105199500D01*
X155921156Y-105199500D01*
X155766505Y-105230262D01*
X155766499Y-105230264D01*
X155749067Y-105237484D01*
X155749066Y-105237483D01*
X155739403Y-105241485D01*
X155734941Y-105242504D01*
X155722620Y-105248437D01*
X155719391Y-105249775D01*
X155719379Y-105249781D01*
X155620819Y-105290606D01*
X155591318Y-105310316D01*
X155591319Y-105310317D01*
X155584071Y-105315159D01*
X155573028Y-105320478D01*
X155557090Y-105333188D01*
X155552735Y-105336098D01*
X155489717Y-105378206D01*
X155489709Y-105378212D01*
X155446700Y-105421220D01*
X155432525Y-105432525D01*
X155421220Y-105446700D01*
X155378212Y-105489709D01*
X155378206Y-105489717D01*
X155336098Y-105552733D01*
X155336099Y-105552734D01*
X155333189Y-105557088D01*
X155320478Y-105573028D01*
X155315161Y-105584067D01*
X155310318Y-105591316D01*
X155310319Y-105591316D01*
X155290606Y-105620819D01*
X155249781Y-105719379D01*
X155246943Y-105725721D01*
X155242574Y-105734793D01*
X155242572Y-105734797D01*
X155242504Y-105734941D01*
X155241482Y-105739416D01*
X155230263Y-105766503D01*
X155199500Y-105921158D01*
X152425500Y-105921158D01*
X152425500Y-104155326D01*
X152425500Y-104155323D01*
X152425499Y-104155321D01*
X152413579Y-104095392D01*
X152419806Y-104025801D01*
X152447513Y-103983522D01*
X153994218Y-102436818D01*
X154055541Y-102403333D01*
X154081899Y-102400499D01*
X155072871Y-102400499D01*
X155072872Y-102400499D01*
X155132483Y-102394091D01*
X155267331Y-102343796D01*
X155382546Y-102257546D01*
X155468796Y-102142331D01*
X155519091Y-102007483D01*
X155525500Y-101947873D01*
X155525499Y-101052128D01*
X155519091Y-100992517D01*
X155501463Y-100945255D01*
X155468797Y-100857671D01*
X155468793Y-100857664D01*
X155382547Y-100742455D01*
X155382544Y-100742452D01*
X155267335Y-100656206D01*
X155267328Y-100656202D01*
X155132482Y-100605908D01*
X155132483Y-100605908D01*
X155072883Y-100599501D01*
X155072881Y-100599500D01*
X155072873Y-100599500D01*
X155072864Y-100599500D01*
X153727129Y-100599500D01*
X153727123Y-100599501D01*
X153667516Y-100605908D01*
X153532671Y-100656202D01*
X153532664Y-100656206D01*
X153417455Y-100742452D01*
X153417452Y-100742455D01*
X153331206Y-100857664D01*
X153331202Y-100857671D01*
X153280908Y-100992517D01*
X153275522Y-101042620D01*
X153274501Y-101052123D01*
X153274500Y-101052135D01*
X153274500Y-101947870D01*
X153274501Y-101947876D01*
X153281738Y-102015196D01*
X153279867Y-102015397D01*
X153276666Y-102075123D01*
X153247410Y-102121551D01*
X151532813Y-103836148D01*
X151471490Y-103869633D01*
X151413041Y-103868242D01*
X151324435Y-103844500D01*
X151225565Y-103844500D01*
X151130062Y-103870090D01*
X151130060Y-103870091D01*
X151130059Y-103870091D01*
X151080736Y-103898567D01*
X151055934Y-103912887D01*
X150993936Y-103929500D01*
X150350323Y-103929500D01*
X150277264Y-103944032D01*
X150277260Y-103944033D01*
X150194399Y-103999399D01*
X150139033Y-104082260D01*
X150139032Y-104082264D01*
X150124500Y-104155321D01*
X150124500Y-104922868D01*
X150104815Y-104989907D01*
X150052011Y-105035662D01*
X149982853Y-105045606D01*
X149919297Y-105016581D01*
X149881523Y-104957803D01*
X149878027Y-104942266D01*
X149866685Y-104870664D01*
X149857171Y-104810591D01*
X149801211Y-104638361D01*
X149801211Y-104638360D01*
X149772740Y-104582484D01*
X149718996Y-104477006D01*
X149705396Y-104458287D01*
X149612558Y-104330505D01*
X149612554Y-104330500D01*
X149484499Y-104202445D01*
X149484494Y-104202441D01*
X149337997Y-104096006D01*
X149337996Y-104096005D01*
X149337994Y-104096004D01*
X149286300Y-104069664D01*
X149176639Y-104013788D01*
X149176636Y-104013787D01*
X149004410Y-103957829D01*
X148825551Y-103929500D01*
X148825546Y-103929500D01*
X148644454Y-103929500D01*
X148644449Y-103929500D01*
X148465589Y-103957829D01*
X148293363Y-104013787D01*
X148293360Y-104013788D01*
X148132002Y-104096006D01*
X147985505Y-104202441D01*
X147985500Y-104202445D01*
X147857445Y-104330500D01*
X147857441Y-104330505D01*
X147751006Y-104477002D01*
X147668788Y-104638360D01*
X147668787Y-104638363D01*
X147612829Y-104810589D01*
X147584500Y-104989448D01*
X141300500Y-104989448D01*
X141300500Y-99375397D01*
X142084499Y-99375397D01*
X142113916Y-99523282D01*
X142113918Y-99523288D01*
X142171623Y-99662602D01*
X142255395Y-99787976D01*
X142255401Y-99787983D01*
X142362016Y-99894598D01*
X142362023Y-99894604D01*
X142440287Y-99946898D01*
X142485093Y-100000510D01*
X142493800Y-100069835D01*
X142463646Y-100132862D01*
X142440287Y-100153102D01*
X142362023Y-100205395D01*
X142362016Y-100205401D01*
X142255401Y-100312016D01*
X142255395Y-100312023D01*
X142171623Y-100437397D01*
X142113918Y-100576711D01*
X142113916Y-100576717D01*
X142084500Y-100724602D01*
X142084500Y-100724605D01*
X142084500Y-100875395D01*
X142084500Y-100875397D01*
X142084499Y-100875397D01*
X142113916Y-101023282D01*
X142113918Y-101023288D01*
X142171623Y-101162602D01*
X142255395Y-101287976D01*
X142255401Y-101287983D01*
X142362017Y-101394599D01*
X142362020Y-101394601D01*
X142362022Y-101394603D01*
X142440736Y-101447197D01*
X142485541Y-101500808D01*
X142494248Y-101570133D01*
X142464094Y-101633161D01*
X142440737Y-101653400D01*
X142362343Y-101705782D01*
X142362337Y-101705787D01*
X142255787Y-101812337D01*
X142255784Y-101812341D01*
X142172068Y-101937629D01*
X142172061Y-101937641D01*
X142114399Y-102076854D01*
X142114396Y-102076866D01*
X142094876Y-102174999D01*
X142094877Y-102175000D01*
X142855618Y-102175000D01*
X142835000Y-102251947D01*
X142835000Y-102348053D01*
X142855618Y-102425000D01*
X142094876Y-102425000D01*
X142114396Y-102523133D01*
X142114399Y-102523145D01*
X142172061Y-102662358D01*
X142172068Y-102662370D01*
X142255784Y-102787658D01*
X142255787Y-102787662D01*
X142362337Y-102894212D01*
X142362341Y-102894215D01*
X142487629Y-102977931D01*
X142487641Y-102977938D01*
X142626854Y-103035600D01*
X142626866Y-103035603D01*
X142774649Y-103064999D01*
X142774653Y-103065000D01*
X143075000Y-103065000D01*
X143075000Y-102644382D01*
X143151947Y-102665000D01*
X143248053Y-102665000D01*
X143325000Y-102644382D01*
X143325000Y-103065000D01*
X143625347Y-103065000D01*
X143625350Y-103064999D01*
X143773133Y-103035603D01*
X143773145Y-103035600D01*
X143912358Y-102977938D01*
X143912370Y-102977931D01*
X144037658Y-102894215D01*
X144037662Y-102894212D01*
X144144212Y-102787662D01*
X144144215Y-102787658D01*
X144227931Y-102662370D01*
X144227938Y-102662358D01*
X144285600Y-102523145D01*
X144285603Y-102523133D01*
X144305123Y-102425000D01*
X143544382Y-102425000D01*
X143565000Y-102348053D01*
X143565000Y-102251947D01*
X143544382Y-102175000D01*
X144305122Y-102175000D01*
X144319761Y-102157162D01*
X144377507Y-102117827D01*
X144447351Y-102115956D01*
X144507120Y-102152143D01*
X144526941Y-102184552D01*
X144527396Y-102184304D01*
X144531649Y-102192093D01*
X144617809Y-102307187D01*
X144617812Y-102307190D01*
X144732906Y-102393350D01*
X144732913Y-102393354D01*
X144867620Y-102443596D01*
X144867627Y-102443598D01*
X144927155Y-102449999D01*
X144927172Y-102450000D01*
X145475000Y-102450000D01*
X145725000Y-102450000D01*
X146272828Y-102450000D01*
X146272844Y-102449999D01*
X146332372Y-102443598D01*
X146332379Y-102443596D01*
X146423815Y-102409493D01*
X148850000Y-102409493D01*
X148850000Y-102590506D01*
X148878317Y-102769293D01*
X148934251Y-102941444D01*
X148934252Y-102941447D01*
X149016430Y-103102726D01*
X149102301Y-103220920D01*
X149569269Y-102753952D01*
X149599901Y-102807007D01*
X149692993Y-102900099D01*
X149746046Y-102930729D01*
X149279078Y-103397696D01*
X149279078Y-103397698D01*
X149397265Y-103483565D01*
X149558552Y-103565747D01*
X149558555Y-103565748D01*
X149730706Y-103621682D01*
X149909494Y-103650000D01*
X150090506Y-103650000D01*
X150269293Y-103621682D01*
X150441444Y-103565748D01*
X150441447Y-103565747D01*
X150602734Y-103483565D01*
X150720920Y-103397699D01*
X150720921Y-103397697D01*
X150253953Y-102930729D01*
X150307007Y-102900099D01*
X150400099Y-102807007D01*
X150430729Y-102753953D01*
X150897697Y-103220921D01*
X150897699Y-103220920D01*
X150983565Y-103102734D01*
X151065747Y-102941447D01*
X151065748Y-102941444D01*
X151121682Y-102769293D01*
X151150000Y-102590506D01*
X151150000Y-102409493D01*
X151121682Y-102230706D01*
X151065748Y-102058555D01*
X151065747Y-102058552D01*
X150983565Y-101897265D01*
X150897698Y-101779078D01*
X150897696Y-101779078D01*
X150430728Y-102246045D01*
X150400099Y-102192993D01*
X150307007Y-102099901D01*
X150253952Y-102069270D01*
X150720920Y-101602301D01*
X150602726Y-101516430D01*
X150441447Y-101434252D01*
X150441444Y-101434251D01*
X150269293Y-101378317D01*
X150090506Y-101350000D01*
X149909494Y-101350000D01*
X149730706Y-101378317D01*
X149558555Y-101434251D01*
X149558552Y-101434252D01*
X149397272Y-101516430D01*
X149279078Y-101602301D01*
X149746047Y-102069270D01*
X149692993Y-102099901D01*
X149599901Y-102192993D01*
X149569270Y-102246047D01*
X149102301Y-101779078D01*
X149016430Y-101897272D01*
X148934252Y-102058552D01*
X148934251Y-102058555D01*
X148878317Y-102230706D01*
X148850000Y-102409493D01*
X146423815Y-102409493D01*
X146467086Y-102393354D01*
X146467089Y-102393352D01*
X146582190Y-102307186D01*
X146668350Y-102192093D01*
X146668354Y-102192086D01*
X146718596Y-102057379D01*
X146718598Y-102057372D01*
X146724999Y-101997844D01*
X146725000Y-101997827D01*
X146725000Y-101675000D01*
X145725000Y-101675000D01*
X145725000Y-102450000D01*
X145475000Y-102450000D01*
X145475000Y-101675000D01*
X144475000Y-101675000D01*
X144475000Y-101910713D01*
X144455315Y-101977752D01*
X144402511Y-102023507D01*
X144333353Y-102033451D01*
X144269797Y-102004426D01*
X144236439Y-101958166D01*
X144227936Y-101937638D01*
X144227931Y-101937629D01*
X144144215Y-101812341D01*
X144144212Y-101812337D01*
X144037662Y-101705787D01*
X143959262Y-101653401D01*
X143914458Y-101599788D01*
X143905751Y-101530463D01*
X143935906Y-101467436D01*
X143959256Y-101447202D01*
X144037978Y-101394603D01*
X144144603Y-101287978D01*
X144228377Y-101162600D01*
X144236438Y-101143136D01*
X144280278Y-101088734D01*
X144346572Y-101066668D01*
X144414272Y-101083946D01*
X144461883Y-101135083D01*
X144475000Y-101190589D01*
X144475000Y-101425000D01*
X145475000Y-101425000D01*
X145725000Y-101425000D01*
X146725000Y-101425000D01*
X146725000Y-101102172D01*
X146724999Y-101102155D01*
X146718598Y-101042627D01*
X146718596Y-101042620D01*
X146668354Y-100907913D01*
X146668350Y-100907906D01*
X146582190Y-100792812D01*
X146582187Y-100792809D01*
X146467093Y-100706649D01*
X146467086Y-100706645D01*
X146332379Y-100656403D01*
X146332372Y-100656401D01*
X146272844Y-100650000D01*
X145725000Y-100650000D01*
X145725000Y-101425000D01*
X145475000Y-101425000D01*
X145475000Y-100650000D01*
X144927155Y-100650000D01*
X144867627Y-100656401D01*
X144867620Y-100656403D01*
X144732913Y-100706645D01*
X144732906Y-100706649D01*
X144617812Y-100792809D01*
X144617809Y-100792812D01*
X144538766Y-100898400D01*
X144482832Y-100940271D01*
X144413141Y-100945255D01*
X144351818Y-100911769D01*
X144318334Y-100850446D01*
X144315500Y-100824089D01*
X144315500Y-100724602D01*
X144286083Y-100576717D01*
X144286082Y-100576716D01*
X144286082Y-100576712D01*
X144228377Y-100437400D01*
X144228376Y-100437397D01*
X144144604Y-100312023D01*
X144144598Y-100312016D01*
X144037983Y-100205401D01*
X144037979Y-100205398D01*
X144037978Y-100205397D01*
X143959709Y-100153100D01*
X143914907Y-100099491D01*
X143906199Y-100030166D01*
X143936353Y-99967138D01*
X143959706Y-99946901D01*
X144037978Y-99894603D01*
X144144603Y-99787978D01*
X144228377Y-99662600D01*
X144286082Y-99523288D01*
X144315500Y-99375395D01*
X144315500Y-99224605D01*
X144315499Y-99224602D01*
X144308226Y-99188038D01*
X144314453Y-99118446D01*
X144357315Y-99063268D01*
X144423204Y-99040023D01*
X144491201Y-99056090D01*
X144529109Y-99089534D01*
X144617452Y-99207544D01*
X144617455Y-99207547D01*
X144732664Y-99293793D01*
X144732671Y-99293797D01*
X144867517Y-99344091D01*
X144867516Y-99344091D01*
X144874444Y-99344835D01*
X144927127Y-99350500D01*
X146272872Y-99350499D01*
X146332483Y-99344091D01*
X146467331Y-99293796D01*
X146582546Y-99207546D01*
X146668796Y-99092331D01*
X146719091Y-98957483D01*
X146719149Y-98956946D01*
X146721375Y-98936243D01*
X146733773Y-98906310D01*
X146744895Y-98875864D01*
X146747069Y-98874212D01*
X146748114Y-98871692D01*
X146774732Y-98853211D01*
X146781801Y-98847844D01*
X153275000Y-98847844D01*
X153281401Y-98907372D01*
X153281403Y-98907379D01*
X153331645Y-99042086D01*
X153331649Y-99042093D01*
X153417809Y-99157187D01*
X153417812Y-99157190D01*
X153532906Y-99243350D01*
X153532913Y-99243354D01*
X153667620Y-99293596D01*
X153667627Y-99293598D01*
X153727155Y-99299999D01*
X153727172Y-99300000D01*
X154275000Y-99300000D01*
X154525000Y-99300000D01*
X155072828Y-99300000D01*
X155072844Y-99299999D01*
X155132372Y-99293598D01*
X155132379Y-99293596D01*
X155267086Y-99243354D01*
X155267093Y-99243350D01*
X155382187Y-99157190D01*
X155382190Y-99157187D01*
X155468350Y-99042093D01*
X155468354Y-99042086D01*
X155518596Y-98907379D01*
X155518598Y-98907372D01*
X155524999Y-98847844D01*
X155525000Y-98847827D01*
X155525000Y-98525000D01*
X154525000Y-98525000D01*
X154525000Y-99300000D01*
X154275000Y-99300000D01*
X154275000Y-98525000D01*
X153275000Y-98525000D01*
X153275000Y-98847844D01*
X146781801Y-98847844D01*
X146800544Y-98833615D01*
X146803827Y-98833011D01*
X146805507Y-98831845D01*
X146834980Y-98825879D01*
X146839818Y-98825500D01*
X146889390Y-98825500D01*
X146988262Y-98825500D01*
X147038561Y-98812022D01*
X147083764Y-98799910D01*
X147169388Y-98750475D01*
X147239301Y-98680562D01*
X147239300Y-98680562D01*
X147297869Y-98621993D01*
X147297868Y-98621993D01*
X148643459Y-97276403D01*
X148704781Y-97242919D01*
X148774473Y-97247903D01*
X148830406Y-97289775D01*
X148854823Y-97355239D01*
X148853613Y-97383481D01*
X148849500Y-97409452D01*
X148849500Y-97590551D01*
X148877829Y-97769410D01*
X148933787Y-97941636D01*
X148933788Y-97941639D01*
X148989664Y-98051300D01*
X149001485Y-98074500D01*
X149016006Y-98102997D01*
X149122441Y-98249494D01*
X149122445Y-98249499D01*
X149250500Y-98377554D01*
X149250505Y-98377558D01*
X149312428Y-98422547D01*
X149397006Y-98483996D01*
X149502484Y-98537740D01*
X149558360Y-98566211D01*
X149558363Y-98566212D01*
X149644476Y-98594191D01*
X149730591Y-98622171D01*
X149813429Y-98635291D01*
X149909449Y-98650500D01*
X149909454Y-98650500D01*
X150090551Y-98650500D01*
X150177259Y-98636765D01*
X150269409Y-98622171D01*
X150441639Y-98566211D01*
X150602994Y-98483996D01*
X150749501Y-98377553D01*
X150877553Y-98249501D01*
X150983996Y-98102994D01*
X151060853Y-97952155D01*
X153275000Y-97952155D01*
X153275000Y-98275000D01*
X154275000Y-98275000D01*
X154525000Y-98275000D01*
X155525000Y-98275000D01*
X155525000Y-97952172D01*
X155524999Y-97952155D01*
X155518598Y-97892627D01*
X155518596Y-97892620D01*
X155468354Y-97757913D01*
X155468350Y-97757906D01*
X155382190Y-97642812D01*
X155382187Y-97642809D01*
X155267093Y-97556649D01*
X155267086Y-97556645D01*
X155132379Y-97506403D01*
X155132372Y-97506401D01*
X155072844Y-97500000D01*
X154525000Y-97500000D01*
X154525000Y-98275000D01*
X154275000Y-98275000D01*
X154275000Y-97500000D01*
X153727155Y-97500000D01*
X153667627Y-97506401D01*
X153667620Y-97506403D01*
X153532913Y-97556645D01*
X153532906Y-97556649D01*
X153417812Y-97642809D01*
X153417809Y-97642812D01*
X153331649Y-97757906D01*
X153331645Y-97757913D01*
X153281403Y-97892620D01*
X153281401Y-97892627D01*
X153275000Y-97952155D01*
X151060853Y-97952155D01*
X151066211Y-97941639D01*
X151068174Y-97935597D01*
X151076318Y-97910534D01*
X151076318Y-97910533D01*
X151097798Y-97844422D01*
X151122171Y-97769409D01*
X151142222Y-97642812D01*
X151150500Y-97590551D01*
X151150500Y-97409448D01*
X151129427Y-97276404D01*
X151122171Y-97230591D01*
X151066211Y-97058361D01*
X151066211Y-97058360D01*
X151037740Y-97002484D01*
X150983996Y-96897006D01*
X150970396Y-96878287D01*
X150877558Y-96750505D01*
X150877554Y-96750500D01*
X150749499Y-96622445D01*
X150749494Y-96622441D01*
X150602997Y-96516006D01*
X150602996Y-96516005D01*
X150602994Y-96516004D01*
X150551300Y-96489664D01*
X150441639Y-96433788D01*
X150441636Y-96433787D01*
X150269410Y-96377829D01*
X150090551Y-96349500D01*
X150090546Y-96349500D01*
X149909454Y-96349500D01*
X149909452Y-96349500D01*
X149883481Y-96353613D01*
X149814187Y-96344657D01*
X149760736Y-96299659D01*
X149740098Y-96232908D01*
X149758824Y-96165594D01*
X149776400Y-96143462D01*
X149977357Y-95942505D01*
X150038678Y-95909022D01*
X150108370Y-95914006D01*
X150164303Y-95955878D01*
X150168121Y-95961273D01*
X150194399Y-96000601D01*
X150256614Y-96042171D01*
X150277260Y-96055966D01*
X150277264Y-96055967D01*
X150350321Y-96070499D01*
X150350324Y-96070500D01*
X150350326Y-96070500D01*
X152199676Y-96070500D01*
X152199677Y-96070499D01*
X152272740Y-96055966D01*
X152355601Y-96000601D01*
X152410966Y-95917740D01*
X152425500Y-95844674D01*
X152425500Y-93995326D01*
X152425500Y-93995323D01*
X152425499Y-93995321D01*
X152414348Y-93939257D01*
X152410967Y-93922263D01*
X152410966Y-93922260D01*
X152410230Y-93921158D01*
X155199500Y-93921158D01*
X155199500Y-93921635D01*
X155199500Y-93928676D01*
X155199500Y-94078846D01*
X155230261Y-94233494D01*
X155230263Y-94233497D01*
X155237482Y-94250927D01*
X155241483Y-94260586D01*
X155242504Y-94265059D01*
X155248450Y-94277406D01*
X155249781Y-94280619D01*
X155290604Y-94379176D01*
X155310316Y-94408678D01*
X155315156Y-94415922D01*
X155320478Y-94426972D01*
X155333199Y-94442924D01*
X155336096Y-94447259D01*
X155336096Y-94447261D01*
X155336097Y-94447262D01*
X155378207Y-94510284D01*
X155378213Y-94510292D01*
X155416289Y-94548367D01*
X155421216Y-94553294D01*
X155432525Y-94567475D01*
X155446705Y-94578783D01*
X155489706Y-94621784D01*
X155489706Y-94621785D01*
X155489709Y-94621787D01*
X155489711Y-94621789D01*
X155557073Y-94666799D01*
X155573028Y-94679522D01*
X155584080Y-94684844D01*
X155620821Y-94709394D01*
X155620824Y-94709395D01*
X155620827Y-94709397D01*
X155672607Y-94730844D01*
X155722596Y-94751550D01*
X155734941Y-94757496D01*
X155739414Y-94758517D01*
X155749078Y-94762520D01*
X155749082Y-94762521D01*
X155766503Y-94769737D01*
X155896776Y-94795650D01*
X155921153Y-94800499D01*
X155921156Y-94800500D01*
X155921158Y-94800500D01*
X156078844Y-94800500D01*
X156078845Y-94800499D01*
X156233497Y-94769737D01*
X156260587Y-94758516D01*
X156265059Y-94757496D01*
X156277397Y-94751552D01*
X156379179Y-94709394D01*
X156415921Y-94684843D01*
X156426972Y-94679522D01*
X156442913Y-94666807D01*
X156510289Y-94621789D01*
X156553298Y-94578779D01*
X156567475Y-94567475D01*
X156578779Y-94553298D01*
X156621789Y-94510289D01*
X156666807Y-94442913D01*
X156679522Y-94426972D01*
X156684843Y-94415921D01*
X156709394Y-94379179D01*
X156751552Y-94277397D01*
X156757496Y-94265059D01*
X156758516Y-94260586D01*
X156769737Y-94233497D01*
X156800500Y-94078842D01*
X156800500Y-93921158D01*
X156800500Y-93921155D01*
X156800499Y-93921153D01*
X156773224Y-93784033D01*
X156769737Y-93766503D01*
X156758516Y-93739414D01*
X156757496Y-93734941D01*
X156751544Y-93722582D01*
X156750217Y-93719379D01*
X156730844Y-93672607D01*
X156709397Y-93620827D01*
X156709395Y-93620824D01*
X156709394Y-93620821D01*
X156684844Y-93584080D01*
X156679522Y-93573028D01*
X156666799Y-93557073D01*
X156621789Y-93489711D01*
X156621787Y-93489709D01*
X156621785Y-93489706D01*
X156583711Y-93451633D01*
X156578783Y-93446705D01*
X156567475Y-93432525D01*
X156553294Y-93421216D01*
X156548367Y-93416289D01*
X156510292Y-93378213D01*
X156510284Y-93378207D01*
X156447262Y-93336097D01*
X156447260Y-93336096D01*
X156442924Y-93333199D01*
X156426972Y-93320478D01*
X156415922Y-93315156D01*
X156408678Y-93310316D01*
X156379176Y-93290604D01*
X156280619Y-93249781D01*
X156277406Y-93248450D01*
X156265059Y-93242504D01*
X156260586Y-93241483D01*
X156250927Y-93237482D01*
X156233497Y-93230263D01*
X156233494Y-93230261D01*
X156078845Y-93199500D01*
X156078842Y-93199500D01*
X155921158Y-93199500D01*
X155921156Y-93199500D01*
X155766505Y-93230262D01*
X155766499Y-93230264D01*
X155749067Y-93237484D01*
X155749066Y-93237483D01*
X155739403Y-93241485D01*
X155734941Y-93242504D01*
X155722620Y-93248437D01*
X155719391Y-93249775D01*
X155719379Y-93249781D01*
X155620819Y-93290606D01*
X155591318Y-93310316D01*
X155591319Y-93310317D01*
X155584071Y-93315159D01*
X155573028Y-93320478D01*
X155557090Y-93333188D01*
X155552735Y-93336098D01*
X155489717Y-93378206D01*
X155489709Y-93378212D01*
X155446700Y-93421220D01*
X155432525Y-93432525D01*
X155421220Y-93446700D01*
X155378212Y-93489709D01*
X155378206Y-93489717D01*
X155336098Y-93552733D01*
X155336099Y-93552734D01*
X155333189Y-93557088D01*
X155320478Y-93573028D01*
X155315161Y-93584067D01*
X155310318Y-93591316D01*
X155310319Y-93591316D01*
X155290606Y-93620819D01*
X155249781Y-93719379D01*
X155246943Y-93725721D01*
X155242574Y-93734793D01*
X155242572Y-93734797D01*
X155242504Y-93734941D01*
X155241482Y-93739416D01*
X155230263Y-93766503D01*
X155199500Y-93921158D01*
X152410230Y-93921158D01*
X152402871Y-93910145D01*
X152355601Y-93839399D01*
X152272740Y-93784034D01*
X152272739Y-93784033D01*
X152272735Y-93784032D01*
X152199677Y-93769500D01*
X152199674Y-93769500D01*
X150350326Y-93769500D01*
X150350323Y-93769500D01*
X150277264Y-93784032D01*
X150277260Y-93784033D01*
X150194399Y-93839399D01*
X150139033Y-93922260D01*
X150139032Y-93922264D01*
X150124500Y-93995321D01*
X150124500Y-94681926D01*
X150115855Y-94711365D01*
X150109330Y-94741358D01*
X150105576Y-94746371D01*
X150104815Y-94748965D01*
X150088177Y-94769611D01*
X150077109Y-94780678D01*
X150015785Y-94814160D01*
X149946093Y-94809173D01*
X149890162Y-94767299D01*
X149866959Y-94712390D01*
X149857171Y-94650590D01*
X149801212Y-94478363D01*
X149801211Y-94478360D01*
X149772740Y-94422484D01*
X149718996Y-94317006D01*
X149692570Y-94280633D01*
X149612558Y-94170505D01*
X149612554Y-94170500D01*
X149484499Y-94042445D01*
X149484494Y-94042441D01*
X149337997Y-93936006D01*
X149337996Y-93936005D01*
X149337994Y-93936004D01*
X149286300Y-93909664D01*
X149176639Y-93853788D01*
X149176636Y-93853787D01*
X149004410Y-93797829D01*
X148825551Y-93769500D01*
X148825546Y-93769500D01*
X148644454Y-93769500D01*
X148644449Y-93769500D01*
X148465589Y-93797829D01*
X148293363Y-93853787D01*
X148293360Y-93853788D01*
X148132002Y-93936006D01*
X147985505Y-94042441D01*
X147985500Y-94042445D01*
X147857445Y-94170500D01*
X147857441Y-94170505D01*
X147751006Y-94317002D01*
X147668788Y-94478360D01*
X147668787Y-94478363D01*
X147612829Y-94650589D01*
X147584500Y-94829448D01*
X147584500Y-95010551D01*
X147612829Y-95189410D01*
X147668787Y-95361636D01*
X147668788Y-95361639D01*
X147751006Y-95522997D01*
X147857441Y-95669494D01*
X147857445Y-95669499D01*
X147985500Y-95797554D01*
X147985505Y-95797558D01*
X148050361Y-95844678D01*
X148132006Y-95903996D01*
X148207588Y-95942507D01*
X148293360Y-95986211D01*
X148293363Y-95986212D01*
X148465590Y-96042171D01*
X148527390Y-96051959D01*
X148590525Y-96081888D01*
X148627457Y-96141199D01*
X148626459Y-96211062D01*
X148595674Y-96262113D01*
X146908819Y-97948968D01*
X146847496Y-97982453D01*
X146777804Y-97977469D01*
X146721871Y-97935597D01*
X146704956Y-97904619D01*
X146668798Y-97807673D01*
X146668793Y-97807664D01*
X146582547Y-97692455D01*
X146582544Y-97692452D01*
X146467335Y-97606206D01*
X146467328Y-97606202D01*
X146332482Y-97555908D01*
X146332483Y-97555908D01*
X146272883Y-97549501D01*
X146272881Y-97549500D01*
X146272873Y-97549500D01*
X146272864Y-97549500D01*
X144927129Y-97549500D01*
X144927123Y-97549501D01*
X144867516Y-97555908D01*
X144732671Y-97606202D01*
X144732664Y-97606206D01*
X144617455Y-97692452D01*
X144538765Y-97797568D01*
X144482831Y-97839438D01*
X144413139Y-97844422D01*
X144351817Y-97810936D01*
X144318332Y-97749613D01*
X144315499Y-97723256D01*
X144315499Y-97487129D01*
X144315498Y-97487123D01*
X144309091Y-97427516D01*
X144258797Y-97292671D01*
X144258793Y-97292664D01*
X144172547Y-97177455D01*
X144172544Y-97177452D01*
X144057335Y-97091206D01*
X144057328Y-97091202D01*
X143922482Y-97040908D01*
X143922483Y-97040908D01*
X143862883Y-97034501D01*
X143862881Y-97034500D01*
X143862873Y-97034500D01*
X143862864Y-97034500D01*
X142537129Y-97034500D01*
X142537123Y-97034501D01*
X142477516Y-97040908D01*
X142342671Y-97091202D01*
X142342664Y-97091206D01*
X142227455Y-97177452D01*
X142227452Y-97177455D01*
X142141206Y-97292664D01*
X142141202Y-97292671D01*
X142090910Y-97427513D01*
X142090909Y-97427517D01*
X142084500Y-97487127D01*
X142084500Y-97487134D01*
X142084500Y-97487135D01*
X142084500Y-98112870D01*
X142084501Y-98112876D01*
X142090908Y-98172483D01*
X142141202Y-98307328D01*
X142141206Y-98307335D01*
X142227452Y-98422544D01*
X142227455Y-98422547D01*
X142349769Y-98514112D01*
X142347897Y-98516611D01*
X142386375Y-98555094D01*
X142401224Y-98623368D01*
X142376803Y-98688831D01*
X142365222Y-98702196D01*
X142255397Y-98812021D01*
X142255397Y-98812022D01*
X142171623Y-98937397D01*
X142113918Y-99076711D01*
X142113916Y-99076717D01*
X142084500Y-99224602D01*
X142084500Y-99224603D01*
X142084500Y-99224605D01*
X142084500Y-99375395D01*
X142084500Y-99375397D01*
X142084499Y-99375397D01*
X141300500Y-99375397D01*
X141300500Y-93921158D01*
X143199500Y-93921158D01*
X143199500Y-93921635D01*
X143199500Y-93928676D01*
X143199500Y-94078846D01*
X143230261Y-94233494D01*
X143230263Y-94233497D01*
X143237482Y-94250927D01*
X143241483Y-94260586D01*
X143242504Y-94265059D01*
X143248450Y-94277406D01*
X143249781Y-94280619D01*
X143290604Y-94379176D01*
X143310316Y-94408678D01*
X143315156Y-94415922D01*
X143320478Y-94426972D01*
X143333199Y-94442924D01*
X143336096Y-94447259D01*
X143336096Y-94447261D01*
X143336097Y-94447262D01*
X143378207Y-94510284D01*
X143378213Y-94510292D01*
X143416289Y-94548367D01*
X143421216Y-94553294D01*
X143432525Y-94567475D01*
X143446705Y-94578783D01*
X143489706Y-94621784D01*
X143489706Y-94621785D01*
X143489709Y-94621787D01*
X143489711Y-94621789D01*
X143557073Y-94666799D01*
X143573028Y-94679522D01*
X143584080Y-94684844D01*
X143620821Y-94709394D01*
X143620824Y-94709395D01*
X143620827Y-94709397D01*
X143672607Y-94730844D01*
X143722596Y-94751550D01*
X143734941Y-94757496D01*
X143739414Y-94758517D01*
X143749078Y-94762520D01*
X143749082Y-94762521D01*
X143766503Y-94769737D01*
X143896776Y-94795650D01*
X143921153Y-94800499D01*
X143921156Y-94800500D01*
X143921158Y-94800500D01*
X144078844Y-94800500D01*
X144078845Y-94800499D01*
X144233497Y-94769737D01*
X144260587Y-94758516D01*
X144265059Y-94757496D01*
X144277397Y-94751552D01*
X144379179Y-94709394D01*
X144415921Y-94684843D01*
X144426972Y-94679522D01*
X144442913Y-94666807D01*
X144510289Y-94621789D01*
X144553298Y-94578779D01*
X144567475Y-94567475D01*
X144578779Y-94553298D01*
X144621789Y-94510289D01*
X144666807Y-94442913D01*
X144679522Y-94426972D01*
X144684843Y-94415921D01*
X144709394Y-94379179D01*
X144751552Y-94277397D01*
X144757496Y-94265059D01*
X144758516Y-94260586D01*
X144769737Y-94233497D01*
X144800500Y-94078842D01*
X144800500Y-93921158D01*
X144800500Y-93921155D01*
X144800499Y-93921153D01*
X144773224Y-93784033D01*
X144769737Y-93766503D01*
X144758516Y-93739414D01*
X144757496Y-93734941D01*
X144751544Y-93722582D01*
X144750217Y-93719379D01*
X144730844Y-93672607D01*
X144709397Y-93620827D01*
X144709395Y-93620824D01*
X144709394Y-93620821D01*
X144684844Y-93584080D01*
X144679522Y-93573028D01*
X144666799Y-93557073D01*
X144621789Y-93489711D01*
X144621787Y-93489709D01*
X144621785Y-93489706D01*
X144583711Y-93451633D01*
X144578783Y-93446705D01*
X144567475Y-93432525D01*
X144553294Y-93421216D01*
X144548367Y-93416289D01*
X144510292Y-93378213D01*
X144510284Y-93378207D01*
X144447262Y-93336097D01*
X144447260Y-93336096D01*
X144442924Y-93333199D01*
X144426972Y-93320478D01*
X144415922Y-93315156D01*
X144408678Y-93310316D01*
X144379176Y-93290604D01*
X144280619Y-93249781D01*
X144277406Y-93248450D01*
X144265059Y-93242504D01*
X144260586Y-93241483D01*
X144250927Y-93237482D01*
X144233497Y-93230263D01*
X144233494Y-93230261D01*
X144078845Y-93199500D01*
X144078842Y-93199500D01*
X143921158Y-93199500D01*
X143921156Y-93199500D01*
X143766505Y-93230262D01*
X143766499Y-93230264D01*
X143749067Y-93237484D01*
X143749066Y-93237483D01*
X143739403Y-93241485D01*
X143734941Y-93242504D01*
X143722620Y-93248437D01*
X143719391Y-93249775D01*
X143719379Y-93249781D01*
X143620819Y-93290606D01*
X143591318Y-93310316D01*
X143591319Y-93310317D01*
X143584071Y-93315159D01*
X143573028Y-93320478D01*
X143557090Y-93333188D01*
X143552735Y-93336098D01*
X143489717Y-93378206D01*
X143489709Y-93378212D01*
X143446700Y-93421220D01*
X143432525Y-93432525D01*
X143421220Y-93446700D01*
X143378212Y-93489709D01*
X143378206Y-93489717D01*
X143336098Y-93552733D01*
X143336099Y-93552734D01*
X143333189Y-93557088D01*
X143320478Y-93573028D01*
X143315161Y-93584067D01*
X143310318Y-93591316D01*
X143310319Y-93591316D01*
X143290606Y-93620819D01*
X143249781Y-93719379D01*
X143246943Y-93725721D01*
X143242574Y-93734793D01*
X143242572Y-93734797D01*
X143242504Y-93734941D01*
X143241482Y-93739416D01*
X143230263Y-93766503D01*
X143199500Y-93921158D01*
X141300500Y-93921158D01*
X141300500Y-92006092D01*
X141301097Y-91993938D01*
X141312063Y-91882598D01*
X141312064Y-91882596D01*
X141312063Y-91882592D01*
X141314571Y-91867177D01*
X141318884Y-91848278D01*
X141321099Y-91839934D01*
X141349834Y-91745206D01*
X141356762Y-91727432D01*
X141359370Y-91722016D01*
X141361666Y-91717494D01*
X141412634Y-91622141D01*
X141426131Y-91601942D01*
X141497635Y-91514814D01*
X141514814Y-91497635D01*
X141601942Y-91426131D01*
X141622141Y-91412634D01*
X141717494Y-91361666D01*
X141722016Y-91359370D01*
X141727432Y-91356762D01*
X141745206Y-91349834D01*
X141839934Y-91321099D01*
X141848278Y-91318884D01*
X141867177Y-91314571D01*
X141882592Y-91312063D01*
X141993939Y-91301097D01*
X142006093Y-91300500D01*
X157993907Y-91300500D01*
X158006061Y-91301097D01*
G37*
%TD.AperFunction*%
%TD*%
M02*
