%TF.GenerationSoftware,KiCad,Pcbnew,9.0.0*%
%TF.CreationDate,2025-05-28T10:08:54+06:00*%
%TF.ProjectId,button-pcb,62757474-6f6e-42d7-9063-622e6b696361,rev?*%
%TF.SameCoordinates,Original*%
%TF.FileFunction,Legend,Top*%
%TF.FilePolarity,Positive*%
%FSLAX46Y46*%
G04 Gerber Fmt 4.6, Leading zero omitted, Abs format (unit mm)*
G04 Created by KiCad (PCBNEW 9.0.0) date 2025-05-28 10:08:54*
%MOMM*%
%LPD*%
G01*
G04 APERTURE LIST*
%ADD10C,0.150000*%
%ADD11C,0.120000*%
G04 APERTURE END LIST*
D10*
X149483333Y-92696033D02*
X149483333Y-91996033D01*
X149483333Y-91996033D02*
X149650000Y-91996033D01*
X149650000Y-91996033D02*
X149750000Y-92029366D01*
X149750000Y-92029366D02*
X149816667Y-92096033D01*
X149816667Y-92096033D02*
X149850000Y-92162700D01*
X149850000Y-92162700D02*
X149883333Y-92296033D01*
X149883333Y-92296033D02*
X149883333Y-92396033D01*
X149883333Y-92396033D02*
X149850000Y-92529366D01*
X149850000Y-92529366D02*
X149816667Y-92596033D01*
X149816667Y-92596033D02*
X149750000Y-92662700D01*
X149750000Y-92662700D02*
X149650000Y-92696033D01*
X149650000Y-92696033D02*
X149483333Y-92696033D01*
X150550000Y-92696033D02*
X150150000Y-92696033D01*
X150350000Y-92696033D02*
X150350000Y-91996033D01*
X150350000Y-91996033D02*
X150283333Y-92096033D01*
X150283333Y-92096033D02*
X150216667Y-92162700D01*
X150216667Y-92162700D02*
X150150000Y-92196033D01*
X149483333Y-107936033D02*
X149483333Y-107236033D01*
X149483333Y-107236033D02*
X149650000Y-107236033D01*
X149650000Y-107236033D02*
X149750000Y-107269366D01*
X149750000Y-107269366D02*
X149816667Y-107336033D01*
X149816667Y-107336033D02*
X149850000Y-107402700D01*
X149850000Y-107402700D02*
X149883333Y-107536033D01*
X149883333Y-107536033D02*
X149883333Y-107636033D01*
X149883333Y-107636033D02*
X149850000Y-107769366D01*
X149850000Y-107769366D02*
X149816667Y-107836033D01*
X149816667Y-107836033D02*
X149750000Y-107902700D01*
X149750000Y-107902700D02*
X149650000Y-107936033D01*
X149650000Y-107936033D02*
X149483333Y-107936033D01*
X150150000Y-107302700D02*
X150183333Y-107269366D01*
X150183333Y-107269366D02*
X150250000Y-107236033D01*
X150250000Y-107236033D02*
X150416667Y-107236033D01*
X150416667Y-107236033D02*
X150483333Y-107269366D01*
X150483333Y-107269366D02*
X150516667Y-107302700D01*
X150516667Y-107302700D02*
X150550000Y-107369366D01*
X150550000Y-107369366D02*
X150550000Y-107436033D01*
X150550000Y-107436033D02*
X150516667Y-107536033D01*
X150516667Y-107536033D02*
X150116667Y-107936033D01*
X150116667Y-107936033D02*
X150550000Y-107936033D01*
X148546667Y-100407200D02*
X148689524Y-100454819D01*
X148689524Y-100454819D02*
X148927619Y-100454819D01*
X148927619Y-100454819D02*
X149022857Y-100407200D01*
X149022857Y-100407200D02*
X149070476Y-100359580D01*
X149070476Y-100359580D02*
X149118095Y-100264342D01*
X149118095Y-100264342D02*
X149118095Y-100169104D01*
X149118095Y-100169104D02*
X149070476Y-100073866D01*
X149070476Y-100073866D02*
X149022857Y-100026247D01*
X149022857Y-100026247D02*
X148927619Y-99978628D01*
X148927619Y-99978628D02*
X148737143Y-99931009D01*
X148737143Y-99931009D02*
X148641905Y-99883390D01*
X148641905Y-99883390D02*
X148594286Y-99835771D01*
X148594286Y-99835771D02*
X148546667Y-99740533D01*
X148546667Y-99740533D02*
X148546667Y-99645295D01*
X148546667Y-99645295D02*
X148594286Y-99550057D01*
X148594286Y-99550057D02*
X148641905Y-99502438D01*
X148641905Y-99502438D02*
X148737143Y-99454819D01*
X148737143Y-99454819D02*
X148975238Y-99454819D01*
X148975238Y-99454819D02*
X149118095Y-99502438D01*
X149451429Y-99454819D02*
X149689524Y-100454819D01*
X149689524Y-100454819D02*
X149880000Y-99740533D01*
X149880000Y-99740533D02*
X150070476Y-100454819D01*
X150070476Y-100454819D02*
X150308572Y-99454819D01*
X151213333Y-100454819D02*
X150641905Y-100454819D01*
X150927619Y-100454819D02*
X150927619Y-99454819D01*
X150927619Y-99454819D02*
X150832381Y-99597676D01*
X150832381Y-99597676D02*
X150737143Y-99692914D01*
X150737143Y-99692914D02*
X150641905Y-99740533D01*
D11*
%TO.C,D1*%
X151565000Y-93840000D02*
X151565000Y-93684000D01*
X151565000Y-96156000D02*
X151565000Y-96000000D01*
X148332665Y-93841392D02*
G75*
G02*
X151565000Y-93684484I1672335J-1078608D01*
G01*
X148963870Y-93840163D02*
G75*
G02*
X151045961Y-93840000I1041130J-1079837D01*
G01*
X151045961Y-96000000D02*
G75*
G02*
X148963870Y-95999837I-1040961J1080000D01*
G01*
X151565000Y-96155516D02*
G75*
G02*
X148332665Y-95998608I-1560000J1235516D01*
G01*
%TO.C,D2*%
X151565000Y-104000000D02*
X151565000Y-103844000D01*
X151565000Y-106316000D02*
X151565000Y-106160000D01*
X148332665Y-104001392D02*
G75*
G02*
X151565000Y-103844484I1672335J-1078608D01*
G01*
X148963870Y-104000163D02*
G75*
G02*
X151045961Y-104000000I1041130J-1079837D01*
G01*
X151045961Y-106160000D02*
G75*
G02*
X148963870Y-106159837I-1040961J1080000D01*
G01*
X151565000Y-106315516D02*
G75*
G02*
X148332665Y-106158608I-1560000J1235516D01*
G01*
%TO.C,SW1*%
X146800000Y-96800000D02*
X149200000Y-96800000D01*
X146800000Y-103200000D02*
X146800000Y-96800000D01*
X149200000Y-103200000D02*
X146800000Y-103200000D01*
X150800000Y-96800000D02*
X153200000Y-96800000D01*
X153200000Y-96800000D02*
X153200000Y-103200000D01*
X153200000Y-103200000D02*
X150800000Y-103200000D01*
%TD*%
M02*
