%TF.GenerationSoftware,KiCad,Pcbnew,9.0.0*%
%TF.CreationDate,2025-05-28T10:08:54+06:00*%
%TF.ProjectId,button-pcb,62757474-6f6e-42d7-9063-622e6b696361,rev?*%
%TF.SameCoordinates,Original*%
%TF.FileFunction,Legend,Bot*%
%TF.FilePolarity,Positive*%
%FSLAX46Y46*%
G04 Gerber Fmt 4.6, Leading zero omitted, Abs format (unit mm)*
G04 Created by KiCad (PCBNEW 9.0.0) date 2025-05-28 10:08:54*
%MOMM*%
%LPD*%
G01*
G04 APERTURE LIST*
%ADD10C,0.150000*%
%ADD11C,0.120000*%
%ADD12C,0.100000*%
G04 APERTURE END LIST*
D10*
X154366666Y-96254819D02*
X154699999Y-95778628D01*
X154938094Y-96254819D02*
X154938094Y-95254819D01*
X154938094Y-95254819D02*
X154557142Y-95254819D01*
X154557142Y-95254819D02*
X154461904Y-95302438D01*
X154461904Y-95302438D02*
X154414285Y-95350057D01*
X154414285Y-95350057D02*
X154366666Y-95445295D01*
X154366666Y-95445295D02*
X154366666Y-95588152D01*
X154366666Y-95588152D02*
X154414285Y-95683390D01*
X154414285Y-95683390D02*
X154461904Y-95731009D01*
X154461904Y-95731009D02*
X154557142Y-95778628D01*
X154557142Y-95778628D02*
X154938094Y-95778628D01*
X153985713Y-95350057D02*
X153938094Y-95302438D01*
X153938094Y-95302438D02*
X153842856Y-95254819D01*
X153842856Y-95254819D02*
X153604761Y-95254819D01*
X153604761Y-95254819D02*
X153509523Y-95302438D01*
X153509523Y-95302438D02*
X153461904Y-95350057D01*
X153461904Y-95350057D02*
X153414285Y-95445295D01*
X153414285Y-95445295D02*
X153414285Y-95540533D01*
X153414285Y-95540533D02*
X153461904Y-95683390D01*
X153461904Y-95683390D02*
X154033332Y-96254819D01*
X154033332Y-96254819D02*
X153414285Y-96254819D01*
X145866666Y-96254819D02*
X146199999Y-95778628D01*
X146438094Y-96254819D02*
X146438094Y-95254819D01*
X146438094Y-95254819D02*
X146057142Y-95254819D01*
X146057142Y-95254819D02*
X145961904Y-95302438D01*
X145961904Y-95302438D02*
X145914285Y-95350057D01*
X145914285Y-95350057D02*
X145866666Y-95445295D01*
X145866666Y-95445295D02*
X145866666Y-95588152D01*
X145866666Y-95588152D02*
X145914285Y-95683390D01*
X145914285Y-95683390D02*
X145961904Y-95731009D01*
X145961904Y-95731009D02*
X146057142Y-95778628D01*
X146057142Y-95778628D02*
X146438094Y-95778628D01*
X144914285Y-96254819D02*
X145485713Y-96254819D01*
X145199999Y-96254819D02*
X145199999Y-95254819D01*
X145199999Y-95254819D02*
X145295237Y-95397676D01*
X145295237Y-95397676D02*
X145390475Y-95492914D01*
X145390475Y-95492914D02*
X145485713Y-95540533D01*
X143533333Y-95139819D02*
X143533333Y-95854104D01*
X143533333Y-95854104D02*
X143580952Y-95996961D01*
X143580952Y-95996961D02*
X143676190Y-96092200D01*
X143676190Y-96092200D02*
X143819047Y-96139819D01*
X143819047Y-96139819D02*
X143914285Y-96139819D01*
X142533333Y-96139819D02*
X143104761Y-96139819D01*
X142819047Y-96139819D02*
X142819047Y-95139819D01*
X142819047Y-95139819D02*
X142914285Y-95282676D01*
X142914285Y-95282676D02*
X143009523Y-95377914D01*
X143009523Y-95377914D02*
X143104761Y-95425533D01*
D11*
%TO.C,R2*%
X154200000Y-100125000D02*
X154200000Y-100195000D01*
X155570000Y-98755000D02*
G75*
G02*
X152830000Y-98755000I-1370000J0D01*
G01*
X152830000Y-98755000D02*
G75*
G02*
X155570000Y-98755000I1370000J0D01*
G01*
%TO.C,R1*%
X145700000Y-99975000D02*
X145700000Y-99905000D01*
X147070000Y-101345000D02*
G75*
G02*
X144330000Y-101345000I-1370000J0D01*
G01*
X144330000Y-101345000D02*
G75*
G02*
X147070000Y-101345000I1370000J0D01*
G01*
D12*
%TO.C,J1*%
X142200000Y-96750000D02*
X142200000Y-103250000D01*
X142200000Y-103250000D02*
X144200000Y-103250000D01*
X144200000Y-96750000D02*
X142200000Y-96750000D01*
X144200000Y-96750000D02*
X144200000Y-103250000D01*
%TD*%
M02*
