%TF.GenerationSoftware,KiCad,Pcbnew,9.0.0*%
%TF.CreationDate,2025-05-28T10:08:54+06:00*%
%TF.ProjectId,button-pcb,62757474-6f6e-42d7-9063-622e6b696361,rev?*%
%TF.SameCoordinates,Original*%
%TF.FileFunction,Copper,L2,Bot*%
%TF.FilePolarity,Positive*%
%FSLAX46Y46*%
G04 Gerber Fmt 4.6, Leading zero omitted, Abs format (unit mm)*
G04 Created by KiCad (PCBNEW 9.0.0) date 2025-05-28 10:08:54*
%MOMM*%
%LPD*%
G01*
G04 APERTURE LIST*
%TA.AperFunction,ComponentPad*%
%ADD10R,1.800000X1.800000*%
%TD*%
%TA.AperFunction,ComponentPad*%
%ADD11C,1.800000*%
%TD*%
%TA.AperFunction,ComponentPad*%
%ADD12C,1.600000*%
%TD*%
%TA.AperFunction,ComponentPad*%
%ADD13O,1.600000X1.600000*%
%TD*%
%TA.AperFunction,ComponentPad*%
%ADD14R,1.200000X1.200000*%
%TD*%
%TA.AperFunction,ComponentPad*%
%ADD15C,1.200000*%
%TD*%
%TA.AperFunction,Conductor*%
%ADD16C,0.250000*%
%TD*%
G04 APERTURE END LIST*
D10*
%TO.P,D1,1,K*%
%TO.N,Net-(D1-K)*%
X151275000Y-94920000D03*
D11*
%TO.P,D1,2,A*%
%TO.N,Net-(D1-A)*%
X148735000Y-94920000D03*
%TD*%
D12*
%TO.P,R2,1*%
%TO.N,GND*%
X154200000Y-98755000D03*
D13*
%TO.P,R2,2*%
%TO.N,Net-(D2-K)*%
X154200000Y-101295000D03*
%TD*%
D12*
%TO.P,R1,1*%
%TO.N,GND*%
X145700000Y-101345000D03*
D13*
%TO.P,R1,2*%
%TO.N,Net-(D1-K)*%
X145700000Y-98805000D03*
%TD*%
D14*
%TO.P,J1,1,Pin_1*%
%TO.N,GND*%
X143200000Y-97750000D03*
D15*
%TO.P,J1,2,Pin_2*%
%TO.N,Net-(J1-Pin_2)*%
X143200000Y-99250000D03*
%TO.P,J1,3,Pin_3*%
%TO.N,Net-(D1-A)*%
X143200000Y-100750000D03*
%TO.P,J1,4,Pin_4*%
%TO.N,Net-(D2-A)*%
X143200000Y-102250000D03*
%TD*%
D10*
%TO.P,D2,1,K*%
%TO.N,Net-(D2-K)*%
X151275000Y-105080000D03*
D11*
%TO.P,D2,2,A*%
%TO.N,Net-(D2-A)*%
X148735000Y-105080000D03*
%TD*%
%TO.P,SW1,1*%
%TO.N,GND*%
X150000000Y-102500000D03*
%TO.P,SW1,2*%
%TO.N,Net-(J1-Pin_2)*%
X150000000Y-97500000D03*
%TD*%
D16*
%TO.N,Net-(D1-A)*%
X143200000Y-100865000D02*
X141700000Y-99365000D01*
X143500000Y-95300000D02*
X148355000Y-95300000D01*
X141700000Y-99365000D02*
X141700000Y-97100000D01*
X141700000Y-97100000D02*
X143500000Y-95300000D01*
X148355000Y-95300000D02*
X148735000Y-94920000D01*
%TO.N,Net-(D2-A)*%
X143200000Y-102250000D02*
X143200000Y-103568168D01*
X143200000Y-103568168D02*
X144711832Y-105080000D01*
X144711832Y-105080000D02*
X148735000Y-105080000D01*
%TO.N,Net-(D2-K)*%
X151275000Y-105080000D02*
X152920000Y-105080000D01*
X152920000Y-105080000D02*
X154200000Y-103800000D01*
X154200000Y-103800000D02*
X154200000Y-101295000D01*
%TO.N,Net-(J1-Pin_2)*%
X143200000Y-99250000D02*
X143881000Y-99931000D01*
X143881000Y-99931000D02*
X147569000Y-99931000D01*
X147569000Y-99931000D02*
X150000000Y-97500000D01*
%TO.N,Net-(D1-K)*%
X145700000Y-98805000D02*
X146831370Y-98805000D01*
X146831370Y-98805000D02*
X150716370Y-94920000D01*
X150716370Y-94920000D02*
X151275000Y-94920000D01*
%TO.N,Net-(J1-Pin_2)*%
X143200000Y-99365000D02*
X143266000Y-99431000D01*
%TD*%
M02*
